SplineFontDB: 3.0
FontName: BenchTwelve-Regular
FullName: BenchTwelve Regular
FamilyName: BenchTwelve
Weight: Regular
Copyright: Copyright (c) 2011-12 vernon adams
Version: 1
ItalicAngle: 0
UnderlinePosition: 0
UnderlineWidth: 0
Ascent: 1638
Descent: 410
sfntRevision: 0x00010000
UFOAscent: 1472
UFODescent: -288
LayerCount: 2
Layer: 0 0 "Back"  1
Layer: 1 0 "Fore"  0
FSType: 0
OS2Version: 0
OS2_WeightWidthSlopeOnly: 1
OS2_UseTypoMetrics: 1
CreationTime: 1342305810
ModificationTime: 1348273896
PfmFamily: 33
TTFWeight: 400
TTFWidth: 6
LineGap: 0
VLineGap: 0
OS2TypoAscent: 2020
OS2TypoAOffset: 0
OS2TypoDescent: -720
OS2TypoDOffset: 0
OS2TypoLinegap: 0
OS2WinAscent: 2020
OS2WinAOffset: 0
OS2WinDescent: 720
OS2WinDOffset: 0
HheadAscent: 2020
HheadAOffset: 0
HheadDescent: -720
HheadDOffset: 0
OS2Vendor: 'newt'
Lookup: 4 0 1 "'liga' Standard Ligatures lookup 0"  {"'liga' Standard Ligatures lookup 0-1"  } ['liga' ('DFLT' <'dflt' > 'grek' <'dflt' > 'latn' <'dflt' > ) ]
Lookup: 258 0 0 "'kern' Horizontal Kerning lookup 1"  {"'kern' Horizontal Kerning lookup 1 per glyph data 0"  "'kern' Horizontal Kerning lookup 1 kerning class 1"  } ['kern' ('DFLT' <'dflt' > 'latn' <'dflt' > ) ]
MarkAttachClasses: 1
DEI: 91125
KernClass2: 32 26 "'kern' Horizontal Kerning lookup 1 kerning class 1" 
 89 A Aacute Abreve Acircumflex Adieresis Agrave Amacron Aogonek Aring Atilde uni0200 uni0202
 1 B
 1 C
 111 D Dcaron Eth O Oacute Obreve Ocircumflex Odieresis Ograve Ohungarumlaut Omacron Oslash Otilde Q uni020C uni020E
 1 F
 1 G
 1 K
 1 L
 1 P
 44 R Racute Rcaron Rcommaaccent uni0210 uni0212
 37 S Sacute Scaron Scedilla Scommaaccent
 16 T Tcaron uni021A
 103 U Uacute Ubreve Ucircumflex Udieresis Ugrave Uhungarumlaut Umacron Uogonek Uring Utilde uni0214 uni0216
 1 V
 1 W
 18 Y Yacute Ydieresis
 1 a
 106 b o oacute obreve ocircumflex odieresis ograve ohungarumlaut omacron oslash otilde p thorn uni020D uni020F
 1 c
 1 e
 1 f
 1 g
 56 h hbar hcircumflex m n nacute ncaron ncommaaccent ntilde

StartChar: A
Encoding: 33 65 0
Width: 1871
VWidth: 0
Flags: HW
LayerCount: 2
Fore
SplineSet
149 0 m 2
 120 0 104 11 104 32 c 0
 104 42 107 53 114 67 c 2
 806 1371 l 1
 826 1412 858 1435 898 1438 c 1
 1010 1438 l 1
 1050 1435 1083 1412 1104 1371 c 2
 1753 67 l 2
 1760 53 1764 41 1764 31 c 0
 1764 11 1749 0 1720 0 c 2
 1625 0 l 2
 1582 0 1544 23 1524 67 c 2
 1397 337 l 1
 1390 342 l 1
 489 342 l 1
 481 336 l 1
 346 67 l 1
 326 24 290 0 247 0 c 2
 149 0 l 2
555 471 m 2
 1330 471 l 2
 1334 471 1335 472 1335 474 c 0
 1335 476 1334 478 1333 479 c 2
 955 1268 l 2
 954 1269 954 1270 953 1270 c 0
 952 1270 952 1268 951 1268 c 2
 549 478 l 2
 549 477 548 476 548 475 c 0
 548 473 550 471 555 471 c 2
EndSplineSet
EndChar

StartChar: AE
Encoding: 132 198 1
Width: 2128
VWidth: 0
Flags: HW
LayerCount: 2
Fore
SplineSet
150 0 m 2
 121 0 105 11 105 32 c 0
 105 42 108 53 115 67 c 2
 811 1371 l 1
 831 1412 863 1435 903 1438 c 1
 1926 1438 l 2
 1969 1438 1993 1404 1993 1361 c 2
 1993 1360 l 2
 1993 1317 1969 1283 1926 1283 c 2
 1197 1283 l 2
 1177 1283 1170 1278 1170 1258 c 2
 1170 848 l 1
 1170 848 1184 822 1183 822 c 2
 1814 822 l 2
 1857 822 1880 788 1880 745 c 2
 1880 742 l 2
 1880 699 1857 665 1814 665 c 2
 1189 665 l 1
 1170 648 l 1
 1170 172 l 1
 1170 172 1184 155 1183 155 c 2
 1924 155 l 2
 1967 155 1991 122 1991 79 c 2
 1991 77 l 2
 1991 34 1967 0 1924 0 c 2
 1020 0 l 2
 977 0 954 24 954 67 c 2
 954 342 l 1
 485 342 l 1
 476 336 l 1
 342 67 l 1
 322 24 286 0 243 0 c 2
 150 0 l 2
550 471 m 2
 970 471 l 1
 970 1317 l 1
 952 1284 951 1283 951 1282 c 0
 913 1210 578 553 556 497 c 0
 550 482 548 476 548 473 c 0
 548 471 549 471 550 471 c 2
EndSplineSet
EndChar

StartChar: B
Encoding: 34 66 11
Width: 2270
VWidth: 0
Flags: HW
LayerCount: 2
Fore
SplineSet
237 0 m 2
 194 0 160 34 160 77 c 2
 160 1359 l 2
 160 1402 194 1438 237 1438 c 2
 1450 1438 l 2
 1878 1438 2036 1339 2036 1040 c 0
 2036 929 1969 848 1867 788 c 0
 1854 780 1855 763 1870 757 c 0
 2024 694 2134 590 2134 424 c 0
 2134 96 1904 0 1405 0 c 2
 237 0 l 2
412 155 m 2
 1480 155 l 2
 1667 155 1913 182 1913 415 c 0
 1913 623 1745 665 1534 665 c 2
 412 665 l 2
 392 665 375 660 375 625 c 2
 375 190 l 2
 375 156 390 155 409 155 c 0
 410 155 411 155 412 155 c 2
412 833 m 2
 1551 833 l 1
 1713 840 1833 873 1833 1044 c 0
 1833 1277 1637 1282 1471 1282 c 2
 412 1282 l 2
 392 1282 375 1274 375 1240 c 2
 375 897 l 2
 375 863 392 833 412 833 c 2
EndSplineSet
EndChar

StartChar: C
Encoding: 35 67 12
Width: 2185
VWidth: 0
Flags: HW
LayerCount: 2
Fore
SplineSet
1125 -41 m 0
 671 -41 133 102 133 721 c 0
 133 1292 671 1475 1125 1475 c 0
 1487 1475 1866 1362 2042 1035 c 0
 2044 1030 2047 1023 2047 1016 c 0
 2047 1009 2043 1001 2028 998 c 0
 1860 974 1864 974 1863 974 c 0
 1849 974 1829 980 1819 996 c 0
 1672 1214 1426 1313 1125 1313 c 0
 722 1313 347 1143 347 721 c 0
 347 226 735 121 1125 121 c 0
 1418 121 1677 183 1819 418 c 0
 1827 430 1835 455 1866 455 c 0
 1869 455 2029 429 2029 429 c 1
 2042 428 2047 416 2047 405 c 0
 2047 399 2046 395 2044 391 c 0
 1870 48 1487 -41 1125 -41 c 0
EndSplineSet
EndChar

StartChar: D
Encoding: 36 68 18
Width: 2208
VWidth: 0
Flags: HW
LayerCount: 2
Fore
SplineSet
402 155 m 1
 1141 155 l 2
 1534 155 1858 227 1858 721 c 0
 1858 1142 1548 1283 1140 1283 c 2
 396 1283 l 1
 384.408 1283 375 1275.38 375 1266 c 2
 375 176 l 2
 375 164.408 387.096 155 402 155 c 1
227 0 m 2
 184 0 160 24 160 67 c 2
 160 1371 l 2
 160 1414 184 1438 227 1438 c 2
 1134 1438 l 2
 1593 1438 2074 1294 2074 721 c 0
 2074 104 1594 0 1137 0 c 2
 227 0 l 2
EndSplineSet
EndChar

StartChar: E
Encoding: 37 69 21
Width: 1690
VWidth: 0
Flags: HW
LayerCount: 2
Fore
SplineSet
227 0 m 2
 184 0 160 24 160 67 c 2
 160 1361 l 2
 160 1404 184 1438 227 1438 c 2
 1488 1438 l 2
 1531 1438 1555 1404 1555 1361 c 2
 1555 1360 l 2
 1555 1317 1531 1283 1488 1283 c 2
 401 1283 l 2
 381 1283 374 1278 374 1258 c 2
 374 848 l 1
 374 833.648 380.272 822 388 822 c 1
 1376 822 l 2
 1419 822 1442 788 1442 745 c 2
 1442 742 l 2
 1442 699 1419 665 1376 665 c 2
 394 665 l 1
 382.96 665 374 657.384 374 648 c 1
 374 172 l 1
 374 162.616 380.272 155 388 155 c 1
 1487 155 l 2
 1530 155 1553 122 1553 79 c 2
 1553 77 l 2
 1553 34 1530 0 1487 0 c 2
 227 0 l 2
EndSplineSet
EndChar

StartChar: Eng
Encoding: 264 330 30
Width: 2033
VWidth: 0
Flags: HW
LayerCount: 2
Fore
SplineSet
955 -592 m 0
 940 -592 924 -574 924 -538 c 2
 924 -476 l 2
 924 -435 942 -421 955 -421 c 0
 1347 -421 1657 -396 1656 104 c 1
 1656 111 l 1
 391 1127 l 1
 377 1118 l 1
 377 67 l 2
 377 24 353 0 310 0 c 2
 227 0 l 2
 184 0 160 24 160 67 c 2
 160 1371 l 2
 160 1414 184 1438 227 1438 c 2
 303 1438 l 2
 324 1438 341 1432 351 1420 c 1
 1643 374 l 1
 1656 387 l 1
 1656 1371 l 2
 1656 1414 1680 1438 1723 1438 c 2
 1807 1438 l 2
 1850 1438 1873 1414 1873 1371 c 2
 1874 99 l 2
 1874 -520 1417 -592 955 -592 c 0
EndSplineSet
EndChar

StartChar: Eth
Encoding: 142 208 32
Width: 2208
VWidth: 0
Flags: HW
LayerCount: 2
Fore
SplineSet
402 155 m 1
 1141 155 l 2
 1534 155 1858 227 1858 721 c 0
 1858 1142 1548 1283 1140 1283 c 2
 396 1283 l 1
 396 1283 375 1265 375 1266 c 2
 375 831 l 1
 740 831 l 2
 783 831 796 807 796 764 c 2
 796 744 l 2
 796 701 783 677 740 677 c 2
 375 677 l 1
 375 176 l 2
 375 177 402 155 402 155 c 1
227 0 m 2
 184 0 160 24 160 67 c 2
 160 677 l 1
 58 677 l 2
 15 677 1 701 1 744 c 2
 1 764 l 2
 1 807 15 831 58 831 c 2
 160 831 l 1
 160 1371 l 2
 160 1414 184 1438 227 1438 c 2
 1134 1438 l 2
 1593 1438 2074 1294 2074 721 c 0
 2074 104 1594 0 1137 0 c 2
 227 0 l 2
EndSplineSet
EndChar

StartChar: Euro
Encoding: 411 8364 33
Width: 2185
VWidth: 0
Flags: HW
LayerCount: 2
Fore
SplineSet
1125 -41 m 0
 729 -41 269 68 158 506 c 1
 57 506 l 2
 14 506 0 519 0 562 c 2
 0 606 l 2
 0 649 14 663 57 663 c 2
 135 663 l 1
 134 682 133 701 133 721 c 0
 133 741 134 761 135 780 c 1
 57 780 l 2
 14 780 0 794 0 837 c 2
 0 881 l 2
 0 924 14 937 57 937 c 2
 162 937 l 1
 280 1339 734 1475 1125 1475 c 0
 1487 1475 1866 1362 2042 1035 c 0
 2044 1030 2047 1023 2047 1016 c 0
 2047 1009 2043 1001 2028 998 c 0
 1860 974 1864 974 1863 974 c 0
 1849 974 1829 980 1819 996 c 0
 1672 1214 1426 1313 1125 1313 c 0
 799 1313 492 1202 386 937 c 1
 831 937 l 2
 874 937 888 924 888 881 c 2
 888 837 l 2
 888 794 874 780 831 780 c 2
 350 780 l 1
 348 761 347 741 347 721 c 0
 347 701 348 682 349 663 c 1
 831 663 l 2
 874 663 888 649 888 606 c 2
 888 562 l 2
 888 519 874 506 831 506 c 2
 377 506 l 1
 475 194 800 121 1125 121 c 0
 1418 121 1677 183 1819 418 c 0
 1827 430 1835 455 1866 455 c 0
 1869 455 2029 429 2029 429 c 1
 2042 428 2047 416 2047 405 c 0
 2047 399 2046 395 2044 391 c 0
 1870 48 1487 -41 1125 -41 c 0
EndSplineSet
EndChar

StartChar: F
Encoding: 38 70 34
Width: 1630
VWidth: 0
Flags: HW
LayerCount: 2
Fore
SplineSet
227 0 m 2
 184 0 160 24 160 67 c 2
 160 1361 l 2
 160 1404 184 1438 227 1438 c 2
 1455 1438 l 2
 1498 1438 1522 1404 1522 1361 c 0
 1522 1318 1498 1284 1455 1284 c 2
 396 1284 l 2
 376 1284 374 1279 374 1259 c 2
 374 781 l 2
 374 782 383 774 383 774 c 1
 1330 774 l 2
 1373 774 1397 740 1397 697 c 2
 1397 673 l 2
 1397 630 1373 596 1330 596 c 2
 388 596 l 2
 389 596 374 580 374 580 c 1
 374 67 l 2
 374 24 350 0 307 0 c 2
 227 0 l 2
EndSplineSet
EndChar

StartChar: G
Encoding: 39 71 35
Width: 2282
VWidth: 0
Flags: HW
LayerCount: 2
Fore
SplineSet
1130 -41 m 0
 675 -41 133 101 133 721 c 0
 133 1292 673 1475 1128 1475 c 0
 1489 1475 1900 1362 2075 1034 c 0
 2078 1028 2079 1024 2079 1019 c 0
 2079 1010 2073 1001 2061 999 c 1
 2062 999 l 0
 2069 999 1922 974 1916 974 c 0
 1859 974 1830 1022 1826 1030 c 1
 1696 1219 1428 1312 1128 1312 c 0
 1127 1312 1125 1312 1124 1312 c 0
 721 1312 347 1142 347 721 c 0
 347 225 737 121 1128 121 c 0
 1535 121 1925 310 1925 564 c 0
 1925 580 1919 606 1903 606 c 2
 1304 606 l 2
 1261 606 1227 632 1227 675 c 2
 1227 691 l 2
 1227 734 1261 760 1304 760 c 2
 2057 760 l 2
 2100 760 2134 726 2134 683 c 2
 2134 77 l 2
 2134 34 2111 0 2068 0 c 0
 2022 0 1999 27 1987 70 c 1
 1977 101 1969 197 1960 251 c 0
 1959 258 1957 275 1951 275 c 0
 1948 275 1945 271 1937 265 c 1
 1744 32 1415 -41 1130 -41 c 0
EndSplineSet
EndChar

StartChar: H
Encoding: 40 72 40
Width: 2038
VWidth: 0
Flags: HW
LayerCount: 2
Fore
SplineSet
227 0 m 2
 184 0 160 24 160 67 c 2
 160 1371 l 2
 160 1414 184 1438 227 1438 c 2
 309 1438 l 2
 352 1438 376 1414 376 1371 c 2
 376 835 l 1
 376 827.272 381.824 821 389 821 c 2
 1645 821 l 1
 1654.94 821 1663 828.616 1663 838 c 2
 1663 1371 l 2
 1663 1414 1686 1438 1729 1438 c 2
 1811 1438 l 2
 1854 1438 1878 1414 1878 1371 c 2
 1878 67 l 2
 1878 24 1854 0 1811 0 c 2
 1729 0 l 2
 1686 0 1663 24 1663 67 c 2
 1663 648 l 1
 1663 657.936 1655.83 666 1647 666 c 1
 391 666 l 2
 382.72 666 376 658.832 376 650 c 1
 376 67 l 2
 376 24 352 0 309 0 c 2
 227 0 l 2
EndSplineSet
EndChar

StartChar: Hbar
Encoding: 228 294 41
Width: 2038
VWidth: 0
Flags: HW
LayerCount: 2
Fore
SplineSet
227 0 m 2
 184 0 160 24 160 67 c 2
 160 1081 l 1
 53 1081 l 2
 9 1081 6 1098 6 1141 c 2
 6 1151 l 2
 6 1194 9 1210 53 1210 c 2
 160 1210 l 1
 160 1371 l 2
 160 1414 184 1438 227 1438 c 2
 309 1438 l 2
 352 1438 376 1414 376 1371 c 2
 376 1210 l 1
 1663 1210 l 1
 1663 1371 l 2
 1663 1414 1686 1438 1729 1438 c 2
 1811 1438 l 2
 1854 1438 1878 1414 1878 1371 c 2
 1878 1210 l 1
 1994 1210 l 2
 2037 1210 2040 1194 2040 1151 c 2
 2040 1141 l 2
 2040 1098 2037 1081 1994 1081 c 2
 1878 1081 l 1
 1878 67 l 2
 1878 24 1854 0 1811 0 c 2
 1729 0 l 2
 1686 0 1663 24 1663 67 c 2
 1663 648 l 1
 1647 666 l 1
 391 666 l 2
 392 666 376 650 376 650 c 1
 376 67 l 2
 376 24 352 0 309 0 c 2
 227 0 l 2
389 821 m 2
 1645 821 l 1
 1645 821 1663 839 1663 838 c 2
 1663 1081 l 1
 376 1081 l 1
 376 835 l 1
 376 835 390 821 389 821 c 2
EndSplineSet
EndChar

StartChar: I
Encoding: 41 73 43
Width: 535
VWidth: 0
Flags: HW
LayerCount: 2
Fore
SplineSet
227 0 m 2
 184 0 160 24 160 67 c 2
 160 1371 l 2
 160 1414 184 1438 227 1438 c 2
 308 1438 l 2
 351 1438 375 1414 375 1371 c 2
 375 67 l 2
 375 24 351 0 308 0 c 2
 227 0 l 2
EndSplineSet
EndChar

StartChar: J
Encoding: 42 74 54
Width: 1180
VWidth: 0
Flags: HW
LayerCount: 2
Fore
SplineSet
111 -231 m 0
 96 -231 80 -213 80 -177 c 2
 80 -115 l 2
 80 -74 98 -60 111 -60 c 0
 506 -60 812 -36 812 460 c 2
 812 1370 l 2
 812 1414 836 1438 880 1438 c 2
 957 1438 l 2
 1000 1438 1024 1414 1024 1370 c 2
 1024 460 l 2
 1024 -159 571 -231 111 -231 c 0
EndSplineSet
EndChar

StartChar: K
Encoding: 43 75 56
Width: 1604
VWidth: 0
Flags: HW
LayerCount: 2
Fore
SplineSet
227 0 m 2
 184 0 160 24 160 67 c 2
 160 1371 l 2
 160 1414 184 1438 227 1438 c 2
 308 1438 l 2
 351 1438 375 1414 375 1371 c 2
 375 760 l 1
 1101 1376 l 1
 1138 1410 1166 1438 1209 1438 c 2
 1356 1438 l 2
 1383 1438 1401 1422 1401 1402 c 0
 1401 1390 1395 1378 1381 1365 c 2
 648 756 l 1
 645 755 641 751 642 746 c 1
 641 743 643 739 649 735 c 2
 1452 67 l 2
 1467 53 1474 40 1474 29 c 0
 1474 12 1457 0 1431 0 c 2
 1276 0 l 2
 1233 0 1203 32 1164 67 c 1
 375 737 l 1
 375 67 l 2
 375 24 351 0 308 0 c 2
 227 0 l 2
EndSplineSet
EndChar

StartChar: L
Encoding: 44 76 58
Width: 1339
VWidth: 0
Flags: HW
LayerCount: 2
Fore
SplineSet
227 0 m 2
 184 0 160 24 160 67 c 2
 160 1371 l 2
 160 1414 184 1438 227 1438 c 2
 307 1438 l 2
 350 1438 374 1414 374 1371 c 2
 374 191 l 2
 374 171 391 154 411 154 c 2
 1163 154 l 2
 1206 154 1230 132 1230 89 c 2
 1230 67 l 2
 1230 24 1206 0 1163 0 c 2
 227 0 l 2
EndSplineSet
EndChar

StartChar: Lslash
Encoding: 255 321 63
Width: 1339
VWidth: 0
Flags: HW
LayerCount: 2
Fore
SplineSet
1163 0 m 2
 227 0 l 2
 184 0 160 24 160 67 c 2
 160 656 l 1
 59 624 l 2
 54 623 49 622 45 622 c 0
 13 622 1 653 1 692 c 2
 1 709 l 2
 1 752 16 766 59 776 c 1
 160 808 l 1
 160 1371 l 2
 160 1414 184 1438 227 1438 c 2
 307 1438 l 2
 350 1438 374 1414 374 1371 c 2
 374 875 l 1
 739 988 l 2
 745 990 750 991 755 991 c 0
 786 991 797 958 797 920 c 2
 797 904 l 2
 797 860 780 848 739 836 c 2
 374 723 l 1
 374 191 l 2
 374 171 391 154 411 154 c 2
 1163 154 l 2
 1206 154 1230 132 1230 89 c 2
 1230 67 l 2
 1230 24 1206 0 1163 0 c 2
EndSplineSet
EndChar

StartChar: M
Encoding: 45 77 64
Width: 2412
VWidth: 0
Flags: HW
LayerCount: 2
Fore
SplineSet
208 0 m 2
 167 0 145 22 145 60 c 0
 145 62 145 65 145 67 c 2
 261 1371 l 2
 264 1412 286 1435 324 1438 c 1
 417 1438 l 1
 457 1435 492 1412 516 1371 c 2
 1187 200 l 2
 1187 201 1208 201 1208 200 c 2
 1900 1371 l 2
 1924 1412 1960 1435 2000 1438 c 1
 2092 1438 l 1
 2131 1435 2154 1412 2157 1371 c 2
 2266 67 l 2
 2266 64 2266 61 2266 59 c 0
 2266 21 2244 0 2204 0 c 2
 2121 0 l 2
 2078 0 2052 24 2049 67 c 2
 1962 1085 l 1
 1949 1086 l 1
 1347 67 l 2
 1323 26 1287 2 1246 0 c 1
 1144 0 l 1
 1103 2 1068 26 1044 67 c 2
 467 1073 l 2
 467 1072 456 1068 456 1069 c 2
 362 67 l 1
 359 24 334 0 291 0 c 2
 208 0 l 2
EndSplineSet
EndChar

StartChar: N
Encoding: 46 78 65
Width: 2033
VWidth: 0
Flags: HW
LayerCount: 2
Fore
SplineSet
1725 0 m 2
 1704 0 1687 6 1676 19 c 1
 391 1130 l 1
 377 1121 l 1
 377 67 l 2
 377 24 353 0 310 0 c 2
 227 0 l 2
 184 0 160 24 160 67 c 2
 160 1371 l 2
 160 1414 184 1438 227 1438 c 2
 303 1438 l 2
 324 1438 341 1432 351 1420 c 1
 1643 294 l 1
 1656 307 l 1
 1656 1371 l 2
 1656 1414 1680 1438 1723 1438 c 2
 1807 1438 l 2
 1850 1438 1873 1414 1873 1371 c 2
 1873 67 l 2
 1873 24 1850 0 1807 0 c 2
 1725 0 l 2
EndSplineSet
EndChar

StartChar: O
Encoding: 47 79 70
Width: 2174
VWidth: 0
Flags: HW
LayerCount: 2
Fore
SplineSet
1087 121 m 0
 1481 121 1827 229 1827 724 c 0
 1827 1145 1494 1313 1087 1313 c 0
 683 1313 347 1145 347 724 c 0
 347 229 696 121 1087 121 c 0
1087 -41 m 0
 631 -41 134 106 134 724 c 0
 134 1295 631 1475 1087 1475 c 0
 1546 1475 2040 1295 2040 724 c 0
 2040 106 1546 -41 1087 -41 c 0
EndSplineSet
EndChar

StartChar: OE
Encoding: 272 338 71
Width: 2614
VWidth: 0
Flags: HW
LayerCount: 2
Fore
SplineSet
1213 0 m 2
 723 0 131 106 131 724 c 0
 131 1296 697 1438 1215 1438 c 2
 2412 1438 l 2
 2454 1438 2479 1404 2479 1361 c 0
 2479 1318 2455 1284 2412 1284 c 2
 1449 1284 l 2
 1429 1284 1422 1279 1422 1259 c 2
 1422 847 l 1
 1422 847 1436 822 1435 822 c 2
 2302 822 l 2
 2345 822 2369 788 2369 745 c 2
 2369 742 l 2
 2369 699 2345 665 2302 665 c 2
 1441 665 l 1
 1441 665 1422 648 1422 649 c 2
 1422 171 l 1
 1422 171 1436 155 1435 155 c 2
 2410 155 l 2
 2453 155 2477 122 2477 79 c 2
 2477 77 l 2
 2477 34 2453 0 2410 0 c 2
 1213 0 l 2
1149 163 m 2
 1197 163 l 2
 1196 163 1208 180 1208 180 c 1
 1208 1260 l 2
 1208 1259 1187 1275 1187 1275 c 1
 1151 1275 l 2
 683 1275 344 1128 344 724 c 0
 344 255 761 163 1149 163 c 2
EndSplineSet
EndChar

StartChar: Oslash
Encoding: 150 216 79
Width: 2174
VWidth: 0
Flags: HW
LayerCount: 2
Fore
SplineSet
784 -202 m 2
 671 -200 l 2
 656 -200 647 -182 654 -167 c 2
 722 -4 l 1
 401 72 134 271 134 724 c 0
 134 1295 631 1475 1087 1475 c 0
 1167 1475 1249 1470 1329 1458 c 1
 1389 1602 l 2
 1397 1622 1414 1635 1433 1635 c 2
 1546 1635 l 2
 1560 1635 1569 1617 1563 1602 c 2
 1489 1422 l 1
 1795 1335 2040 1127 2040 724 c 0
 2040 106 1546 -41 1087 -41 c 0
 1020 -41 953 -38 886 -31 c 1
 829 -169 l 2
 821 -189 802 -202 784 -202 c 2
785 150 m 1
 1264 1301 l 1
 1207 1308 1148 1313 1087 1313 c 0
 683 1313 347 1145 347 724 c 0
 347 362 534 207 785 150 c 1
1087 121 m 0
 1481 121 1827 229 1827 724 c 0
 1827 1020 1663 1191 1423 1266 c 1
 952 126 l 1
 996 122 1041 121 1087 121 c 0
EndSplineSet
EndChar

StartChar: P
Encoding: 48 80 81
Width: 2011
VWidth: 0
Flags: HW
LayerCount: 2
Fore
SplineSet
227 0 m 2
 184 0 160 24 160 67 c 2
 160 1371 l 2
 160 1414 184 1438 227 1438 c 2
 905 1438 l 1
 916 1438 l 2
 1371 1438 1878 1436 1878 965 c 0
 1878 442 1497 442 965 442 c 2
 394 442 l 5
 383.512 442 375 433.04 375 422 c 5
 375 67 l 2
 375 24 351 0 308 0 c 2
 227 0 l 2
391 614 m 5
 957 614 l 2
 1465 614 1662 614 1662 965 c 0
 1662 1265 1366 1284 909 1284 c 2
 392 1284 l 5
 382.616 1284 375 1276.83 375 1268 c 5
 375 635 l 5
 375 623.408 382.168 614 391 614 c 5
EndSplineSet
EndChar

StartChar: Q
Encoding: 49 81 82
Width: 2174
VWidth: 0
Flags: HW
LayerCount: 2
Fore
SplineSet
1642 -513 m 2
 1626 -521 1610 -526 1596 -526 c 0
 1576 -526 1558 -517 1545 -495 c 2
 1288 -31 l 1
 1221 -38 1154 -41 1087 -41 c 0
 631 -41 134 106 134 724 c 0
 134 1295 631 1475 1087 1475 c 0
 1546 1475 2040 1295 2040 724 c 0
 2040 289 1795 87 1490 6 c 1
 1717 -402 l 2
 1723 -412 1726 -423 1726 -432 c 0
 1726 -457 1706 -478 1679 -493 c 2
 1642 -513 l 2
1087 121 m 0
 1481 121 1827 229 1827 724 c 0
 1827 1145 1494 1313 1087 1313 c 0
 683 1313 347 1145 347 724 c 0
 347 229 696 121 1087 121 c 0
EndSplineSet
EndChar

StartChar: R
Encoding: 50 82 83
Width: 2129
VWidth: 0
Flags: HW
LayerCount: 2
Fore
SplineSet
227 0 m 2
 184 0 160 24 160 67 c 2
 160 1371 l 2
 160 1414 184 1438 227 1438 c 2
 1010 1438 l 1
 1017 1438 l 2
 1539 1438 1943 1437 1943 1014 c 0
 1943 723 1815 631 1601 584 c 0
 1598 583 1595 583 1595 581 c 0
 1595 580 1596 578 1600 576 c 0
 1653 558 1773 519 1850 351 c 1
 1976 68 l 2
 1981 60 1983 52 1983 45 c 0
 1983 17 1949 0 1915 0 c 2
 1823 0 l 2
 1780 0 1772 28 1750 67 c 1
 1625 331 l 1
 1529 537 1297 539 1205 539 c 2
 391 539 l 1
 382.168 539 375 532.28 375 524 c 2
 375 67 l 2
 375 24 351 0 308 0 c 2
 227 0 l 2
391 706 m 2
 1172 706 l 2
 1593 706 1733 717 1733 1005 c 0
 1733 1256 1469 1284 1012 1284 c 2
 392 1284 l 1
 375 1270 l 1
 375 718 l 2
 375 711.376 382.168 706 391 706 c 2
EndSplineSet
EndChar

StartChar: S
Encoding: 51 83 87
Width: 1963
VWidth: 0
Flags: HW
LayerCount: 2
Fore
SplineSet
1026 834 m 0
 1035 834 1043 834 1052 834 c 0
 1628 834 1828 712 1828 436 c 0
 1828 58 1552 -41 964 -41 c 0
 657 -41 463 -9 186 97 c 0
 161 107 145 134 145 163 c 0
 145 172 155 212 155 212 c 1
 170 244 192 257 223 257 c 0
 287 257 438 121 984 121 c 0
 1533 121 1625 228 1625 410 c 0
 1625 570 1568 658 996 658 c 0
 988 658 979 658 971 658 c 0
 404 658 145 728 145 1045 c 0
 145 1408 505 1475 988 1475 c 0
 1306 1475 1476 1429 1676 1341 c 0
 1700 1330 1715 1304 1716 1276 c 0
 1716 1266 1716 1260 1711 1250 c 1
 1711 1250 1704 1191 1638 1191 c 0
 1637 1191 l 0
 1578 1191 1451 1312 984 1312 c 0
 471 1312 354 1201 354 1066 c 0
 354 914 395 834 1026 834 c 0
EndSplineSet
EndChar

StartChar: T
Encoding: 52 84 93
Width: 1683
VWidth: 0
Flags: HW
LayerCount: 2
Fore
SplineSet
800 0 m 2
 757 0 733 24 733 67 c 2
 733 1258 l 2
 733 1278 726 1283 706 1283 c 2
 144 1283 l 2
 101 1283 77 1317 77 1360 c 2
 77 1361 l 2
 77 1404 101 1438 144 1438 c 2
 1535 1438 l 2
 1578 1438 1602 1404 1602 1361 c 2
 1602 1360 l 2
 1602 1317 1578 1283 1535 1283 c 2
 975 1283 l 2
 955 1283 949 1278 949 1258 c 2
 949 67 l 2
 949 24 925 0 882 0 c 2
 800 0 l 2
EndSplineSet
EndChar

StartChar: Tbar
Encoding: 292 358 94
Width: 1683
VWidth: 0
Flags: HW
LayerCount: 2
Fore
SplineSet
800 0 m 2
 757 0 733 24 733 67 c 2
 733 664 l 1
 342 664 l 2
 299 664 296 699 296 742 c 2
 296 764 l 2
 296 807 299 839 342 839 c 2
 733 839 l 1
 733 1258 l 2
 733 1278 726 1283 706 1283 c 2
 144 1283 l 2
 101 1283 77 1317 77 1360 c 2
 77 1361 l 2
 77 1404 101 1438 144 1438 c 2
 1535 1438 l 2
 1578 1438 1602 1404 1602 1361 c 2
 1602 1360 l 2
 1602 1317 1578 1283 1535 1283 c 2
 975 1283 l 2
 955 1283 949 1278 949 1258 c 2
 949 839 l 1
 1349 839 l 2
 1392 839 1395 807 1395 764 c 2
 1395 742 l 2
 1395 699 1392 664 1349 664 c 2
 949 664 l 1
 949 67 l 2
 949 24 925 0 882 0 c 2
 800 0 l 2
EndSplineSet
EndChar

StartChar: Thorn
Encoding: 156 222 97
Width: 1825
VWidth: 0
Flags: HW
LayerCount: 2
Fore
SplineSet
227 0 m 2
 184 0 160 24 160 67 c 2
 160 1371 l 2
 160 1414 184 1438 227 1438 c 2
 308 1438 l 2
 351 1438 375 1414 375 1371 c 2
 375 1222 l 1
 634 1222 l 2
 1093 1222 1699 1217 1699 789 c 0
 1699 309 1226 306 694 306 c 2
 394 306 l 1
 394 306 375 286 375 287 c 2
 375 67 l 2
 375 24 351 0 308 0 c 2
 227 0 l 2
391 479 m 1
 687 479 l 2
 1194 479 1489 483 1489 789 c 0
 1489 1063 1095 1066 639 1066 c 2
 392 1066 l 1
 392 1066 375 1050 375 1051 c 2
 375 500 l 1
 391 479 l 1
EndSplineSet
EndChar

StartChar: U
Encoding: 53 85 98
Width: 2212
VWidth: 0
Flags: HW
LayerCount: 2
Fore
SplineSet
1107 -41 m 0
 650 -41 153 31 153 649 c 2
 153 1371 l 2
 153 1414 182 1438 221 1438 c 2
 296 1438 l 2
 346.197 1438 366 1414 366 1371 c 2
 366 649 l 2
 366 154 715 121 1107 121 c 0
 1501 121 1848 154 1848 649 c 2
 1848 1371 l 2
 1848 1414 1872 1438 1915 1438 c 2
 1994 1438 l 2
 2037 1438 2061 1414 2061 1371 c 2
 2061 649 l 2
 2061 31 1566 -41 1107 -41 c 0
EndSplineSet
EndChar

StartChar: V
Encoding: 54 86 109
Width: 1935
VWidth: 0
Flags: HW
LayerCount: 2
Fore
SplineSet
949 0 m 1
 909 3 874 26 850 67 c 2
 103 1371 l 2
 94 1387 90 1400 90 1410 c 0
 90 1428 104 1438 131 1438 c 2
 243 1438 l 2
 286 1438 325 1414 349 1371 c 2
 997 181 l 1
 1591 1371 l 2
 1612 1414 1650 1438 1693 1438 c 2
 1796 1438 l 2
 1825 1438 1839 1427 1839 1408 c 0
 1839 1398 1835 1386 1828 1371 c 2
 1138 67 l 2
 1117 26 1084 3 1044 0 c 1
 949 0 l 1
EndSplineSet
EndChar

StartChar: W
Encoding: 55 87 110
Width: 3291
VWidth: 0
Flags: HW
LayerCount: 2
Fore
SplineSet
874 0 m 1
 834 3 796.686 24.7305 775 67 c 2
 106 1371 l 2
 97 1387 93 1400 93 1410 c 0
 93 1428 107 1438 134 1438 c 2
 246 1438 l 2
 289 1438 330.771 1415.43 352 1371 c 2
 922 178 l 1
 1489 1371 l 2
 1510 1414 1548 1438 1586 1438 c 2
 1701 1438 l 2
 1744 1438 1783 1414 1807 1371 c 2
 2428 178 l 1
 2944 1371 l 2
 2963 1414.92 3003 1438 3046 1438 c 2
 3150 1438 l 2
 3179 1438 3193 1428 3193 1408 c 0
 3193 1398 3189 1385 3182 1371 c 2
 2569 67 l 2
 2549.4 25.3115 2516 3 2476 0 c 1
 2369 0 l 1
 2330 3 2293 25 2271 67 c 2
 1648 1267 l 1
 1075 67 l 2
 1055 26 1021 3 981 0 c 1
 874 0 l 1
EndSplineSet
EndChar

StartChar: X
Encoding: 56 88 115
Width: 1961
VWidth: 0
Flags: HW
LayerCount: 2
Fore
SplineSet
145 0 m 2
 122 0 111 7 111 20 c 0
 111 31 120 47 138 67 c 1
 867 750 l 1
 245 1371 l 2
 224 1392 212 1409 212 1420 c 0
 212 1432 223 1438 245 1438 c 2
 373 1438 l 2
 416 1438 462 1414 506 1371 c 2
 1002 876 l 1
 1530 1371 l 1
 1569 1414 1613 1438 1656 1438 c 2
 1792 1438 l 2
 1815 1438 1826 1431 1826 1418 c 0
 1826 1407 1817 1391 1798 1371 c 1
 1130 748 l 1
 1813 67 l 2
 1834 46 1845 29 1845 18 c 0
 1845 6 1834 0 1812 0 c 2
 1684 0 l 2
 1641 0 1594 24 1551 67 c 2
 995 623 l 1
 397 67 l 1
 358 24 313 0 270 0 c 2
 145 0 l 2
EndSplineSet
EndChar

StartChar: Y
Encoding: 57 89 116
Width: 1660
VWidth: 0
Flags: HW
LayerCount: 2
Fore
SplineSet
788 0 m 2
 745 0 721 24 721 67 c 2
 721 720 l 1
 105 1371 l 1
 82 1391 72 1409 72 1421 c 0
 72 1432 83 1438 105 1438 c 2
 236 1438 l 2
 279 1438 326 1414 370 1371 c 1
 832 882 l 1
 1287 1371 l 2
 1327 1414 1372 1438 1414 1438 c 2
 1549 1438 l 2
 1572 1438 1583 1431 1583 1418 c 0
 1583 1407 1576 1389 1555 1371 c 1
 936 724 l 1
 936 67 l 2
 936 24 912 0 869 0 c 2
 788 0 l 2
EndSplineSet
EndChar

StartChar: Z
Encoding: 58 90 121
Width: 1609
VWidth: 0
Flags: HW
LayerCount: 2
Fore
SplineSet
195 0 m 2
 152 0 129 34 129 77 c 2
 129 106 l 2
 129 130 135 150 149 163 c 1
 1172 1234 l 2
 1182 1245 1187 1253 1187 1263 c 0
 1187 1274 1184 1284 1156 1284 c 2
 205 1284 l 2
 162 1284 138 1318 138 1361 c 0
 138 1404 162 1438 205 1438 c 2
 1395 1438 l 2
 1438 1438 1462 1404 1462 1361 c 2
 1462 1332 l 2
 1462 1289 1443 1245 1430 1230 c 2
 443 189 l 2
 434 179 431 177 431 168 c 0
 431 160 436 154 451 154 c 2
 1415 154 l 2
 1458 154 1481 120 1481 77 c 0
 1481 34 1458 0 1415 0 c 2
 195 0 l 2
EndSplineSet
EndChar

StartChar: a
Encoding: 65 97 125
Width: 1680
VWidth: 0
Flags: HW
LayerCount: 2
Fore
SplineSet
719 -41 m 0
 325 -41 139 62 139 242 c 0
 139 673 1317 606 1317 641 c 2
 1317 656 l 2
 1317 812 1239 902 880 902 c 0
 796 902 484 895 392 801 c 1
 372 779 337 747 316 747 c 0
 310 747 307 748 298 749 c 2
 210 765 l 1
 193 767 178 785 178 802 c 0
 178 820 182 835 189 846 c 0
 282 987 473 1052 878 1052 c 0
 1388 1052 1536 898 1536 570 c 2
 1536 94 l 2
 1536 31 1520 0 1485 0 c 2
 1460 0 l 2
 1420 0 1405 43 1394 122 c 0
 1387 170 1383 217 1378 235 c 1
 1374 256 1373 273 1367 273 c 0
 1362 273 1357 248 1354 241 c 0
 1282 84 1081 -41 719 -41 c 0
729 101 m 0
 1039 101 1320 206 1320 485 c 0
 1320 499 1320 502 1309 502 c 0
 1306 502 1123 492 1118 491 c 0
 524 451 367 385 367 254 c 0
 367 154 453 101 729 101 c 0
EndSplineSet
EndChar

StartChar: acute
Encoding: 114 180 129
Width: 1745
VWidth: 0
Flags: HW
LayerCount: 2
Fore
SplineSet
850 1166 m 2
 837 1166 834 1177 834 1190 c 0
 834 1206 839 1226 841 1233 c 2
 904 1542 l 2
 912 1585 925 1597 969 1597 c 2
 1132 1597 l 2
 1152 1597 1160 1585 1160 1569 c 0
 1160 1558 1155 1544 1148 1532 c 1
 924 1205 l 2
 898 1166 888 1166 876 1166 c 2
 850 1166 l 2
EndSplineSet
EndChar

StartChar: ae
Encoding: 164 230 131
Width: 2783
VWidth: 0
Flags: HW
LayerCount: 2
Fore
SplineSet
716 -41 m 0
 324 -41 140 62 137 238 c 1
 137 670 1320 606 1320 641 c 0
 1320 675 1322 688 1322 703 c 0
 1322 770 1285 902 881 902 c 0
 797 902 498 895 407 801 c 0
 386 779 351 747 330 747 c 0
 324 747 321 748 312 749 c 2
 196 765 l 2
 179 767 164 785 164 802 c 0
 164 820 171 835 175 846 c 0
 228 992 474 1052 879 1052 c 0
 1225 1052 1393 969 1455 831 c 1
 1591 980 1823 1052 2019 1052 c 0
 2450 1052 2600 814 2650 609 c 1
 2650 558 l 1
 2649 522 2627 450 2515 450 c 2
 1556 450 l 2
 1545 450 1539 466 1539 458 c 0
 1540 333 1626 106 2049 106 c 0
 2220 106 2432 179 2498 210 c 0
 2514 217 2528 220 2540 220 c 0
 2558 220 2570 213 2574 201 c 0
 2576 195 2598 122 2597 115 c 1
 2597 97 2586 80 2553 63 c 0
 2428 2 2182 -42 2041 -42 c 0
 1769 -42 1558 32 1433 246 c 0
 1431 248 1429 251 1426 251 c 0
 1424 251 1422 251 1419 247 c 0
 1279 71 1050 -41 716 -41 c 0
727 101 m 0
 1037 101 1323 233 1323 485 c 0
 1323 499 1323 502 1312 502 c 0
 1309 502 1196 492 1191 491 c 0
 590 451 365 382 365 250 c 1
 367 154 452 101 727 101 c 0
1551 589 m 2
 2467 589 l 1
 2466 591 l 1
 2416 733 2344 902 2018 902 c 0
 1804 902 1579 813 1543 596 c 0
 1543 592 1544 589 1551 589 c 2
EndSplineSet
EndChar

StartChar: ampersand
Encoding: 6 38 134
Width: 2413
VWidth: 0
Flags: HW
LayerCount: 2
Fore
SplineSet
1941 -41 m 0
 1781 -41 1674 7 1610 89 c 1
 1480 45 1245 -40 921 -40 c 0
 316 -40 165 147 165 386 c 0
 165 564 277 722 476 742 c 1
 267 768 142 890 142 1068 c 0
 142 1318 302 1474 907 1474 c 0
 1106 1474 1336 1445 1449 1412 c 0
 1486 1402 1502 1385 1502 1355 c 0
 1502 1332.22 1498.01 1308.55 1496 1286 c 0
 1492 1255 1478 1242 1452 1242 c 0
 1445 1242 1438 1243 1429 1245 c 0
 1390 1253 1234 1303 896 1303 c 0
 387.833 1303 355 1188.31 355 1044 c 0
 355 923 434 818 795 818 c 2
 1512 818 l 2
 1532 818 1539 825 1539 845 c 1
 1559 1056 l 1
 1567 1098 1583 1122 1626 1122 c 2
 1690 1122 l 2
 1733 1122 1757 1099 1757 1056 c 2
 1757 845 l 2
 1757 825 1764 818 1784 818 c 2
 2166 818 l 2
 2209 818 2233 795 2233 752 c 2
 2233 730 l 2
 2233 687 2209 663 2166 663 c 2
 1784 663 l 2
 1764 663 1757 657 1757 637 c 2
 1757 301 l 2
 1757 163 1831 107 1982 107 c 0
 2051 107 2125 124 2185 144 c 0
 2200 149 2211 151 2220 151 c 0
 2246 151 2249.94 131.357 2259 106 c 2
 2269 78 l 2
 2271 70 2272 63 2272 57 c 0
 2272 30 2251 18 2218 5 c 0
 2140 -26 2051 -41 1941 -41 c 0
929 131 m 0
 1195 131 1425 201 1546 243 c 1
 1541 270 1539 300 1539 331 c 2
 1539 637 l 2
 1539 657 1532 663 1512 663 c 2
 785 663 l 1
 437 660 376 522 376 398 c 0
 376 188.451 546.758 131 929 131 c 0
EndSplineSet
EndChar

StartChar: asciicircum
Encoding: 62 94 137
Width: 1299
VWidth: 0
Flags: HW
LayerCount: 2
Fore
SplineSet
118 201 m 2
 91 201 72 223 72 246 c 0
 72 253 74 261 78 268 c 2
 493 1140 l 2
 512.617 1181.22 540 1207 587 1207 c 2
 663 1207 l 2
 710 1207 735.811 1180.92 756 1139 c 2
 1175 269 l 2
 1179 262 1180 255 1180 247 c 0
 1180 223 1161 201 1134 201 c 2
 1059 201 l 2
 1013 201 989 229 970 270 c 2
 642 950 l 2
 638 957 632 960 626 960 c 0
 620 960 613 957 610 950 c 2
 300 270 l 1
 280 229 257 201 211 201 c 2
 118 201 l 2
EndSplineSet
EndChar

StartChar: asciitilde
Encoding: 94 126 138
Width: 1394
VWidth: 0
Flags: HW
LayerCount: 2
Fore
SplineSet
428 745 m 0
 234 745 158 879 122 988 c 0
 119 997 118 1004 118 1012 c 0
 118 1025 124 1038 147 1049 c 2
 219 1082 l 2
 229 1087 238 1088 244 1088 c 0
 269 1088 281 1069 284 1061 c 0
 325 976 370 931 432 931 c 0
 563 931 763 1099 937 1099 c 0
 1101 1099 1207 993 1261 876 c 0
 1265 866 1267 857 1267 850 c 0
 1267 821 1216 792 1200 781 c 1
 1184 773 1170 770 1161 770 c 0
 1140 770 1128 783 1119 798 c 0
 1076 873 1027 918 963 918 c 0
 811 918 620 745 428 745 c 0
EndSplineSet
EndChar

StartChar: asterisk
Encoding: 10 42 139
Width: 1289
VWidth: 0
Flags: HW
LayerCount: 2
Fore
SplineSet
389 292 m 0
 339 292 292 336 292 385 c 0
 292 463 525 682 575 738 c 1
 194 821 l 2
 153 830 121 866 121 907 c 0
 121 957 160 1005 212 1005 c 0
 271 1005 539 848 602 815 c 1
 585 944 550 1094 550 1222 c 0
 550 1272 597 1305 644 1305 c 0
 693 1305 734 1267 734 1217 c 0
 734 1091 700 942 684 815 c 1
 747 848 1016 1005 1075 1005 c 0
 1126 1005 1165 957 1165 907 c 0
 1165 866 1133 830 1093 821 c 2
 712 738 l 1
 761 682 994 463 994 385 c 0
 994 336 947 292 898 292 c 0
 864 292 832 313 817 342 c 2
 644 692 l 1
 469 342 l 2
 454 313 423 292 389 292 c 0
EndSplineSet
EndChar

StartChar: at
Encoding: 32 64 140
Width: 2242
VWidth: 0
Flags: HW
LayerCount: 2
Fore
SplineSet
1472 -148 m 2
 1476 -154 1477 -160 1477 -166 c 0
 1477 -182 1465 -198 1448 -203 c 0
 1338 -243 1211 -265 1067 -265 c 0
 467 -265 166 142 166 595 c 0
 166 1078 541 1455 1143 1455 c 0
 1762 1455 2106 1050 2108 601 c 1
 2108 247 1943 127 1793 127 c 0
 1683 127 1604 186 1577 301 c 0
 1572 322 1567 339 1560 339 c 0
 1552 339 1545 324 1539 315 c 0
 1466 203 1342 92 1116 92 c 4
 840 92 595 258 595 573 c 0
 595 869 820 1037 1105 1037 c 0
 1313 1037 1468 933 1527 816 c 0
 1531 808 1534 804 1537 804 c 0
 1540 804 1541 809 1543 817 c 2
 1562 942 l 2
 1567 980 1589 992 1619 992 c 2
 1635 992 l 2
 1660 992 1680 965 1680 931 c 2
 1680 366 l 2
 1680 273 1736 240 1796 240 c 0
 1875 240 1960 272 1960 601 c 0
 1960 990 1684 1312 1147 1312 c 0
 612 1312 333 984 333 585 c 0
 333 228 558 -127 1095 -127 c 0
 1212 -127 1312 -108 1397 -74 c 0
 1404 -70 1410 -69 1415 -69 c 0
 1428 -69 1434 -81 1443 -101 c 1
 1472 -148 l 2
1115 229 m 0
 1295 229 1482 306 1482 564 c 0
 1482 810 1293 902 1117 902 c 0
 846 902 753 737 753 569 c 0
 753 388 878 229 1115 229 c 0
EndSplineSet
EndChar

StartChar: b
Encoding: 66 98 142
Width: 1671
VWidth: 0
Flags: HW
LayerCount: 2
Fore
SplineSet
884 -41 m 0
 686 -41 469 43 352 207 c 0
 350 209 348 212 345 212 c 0
 337 212 324 157 321 146 c 0
 293 54 265 0 224 0 c 2
 213 0 l 2
 170 0 160 24 160 67 c 2
 160 1372 l 2
 160 1415 184 1438 227 1438 c 2
 312 1438 l 2
 355 1438 379 1415 379 1372 c 2
 379 859 l 2
 379 852 380 851 380 851 c 1
 382 851 384 855 386 855 c 1
 494 989 665 1053 865 1053 c 0
 1188 1053 1542 913 1542 504 c 0
 1542 106 1176 -41 884 -41 c 0
852 116 m 0
 1108 116 1323 240 1323 504 c 0
 1323 792 1091 896 852 896 c 0
 610 896 379 788 379 504 c 0
 379 244 594 116 852 116 c 0
EndSplineSet
EndChar

StartChar: backslash
Encoding: 60 92 143
Width: 1079
VWidth: 0
Flags: HW
LayerCount: 2
Fore
SplineSet
808 -205 m 2
 786 -205 766 -191 758 -170 c 2
 71 1612 l 2
 70 1615 69 1618 69 1621 c 0
 69 1635 80 1647 95 1647 c 2
 249 1647 l 2
 271 1647 291 1633 299 1612 c 2
 986 -170 l 2
 987 -173 988 -176 988 -179 c 0
 988 -193 977 -205 962 -205 c 2
 808 -205 l 2
EndSplineSet
EndChar

StartChar: bar
Encoding: 92 124 144
Width: 526
VWidth: 0
Flags: HW
LayerCount: 2
Fore
SplineSet
238 -150 m 2
 195 -150 161 -137 161 -94 c 2
 161 1499 l 2
 161 1542 195 1555 238 1555 c 2
 288 1555 l 2
 331 1555 365 1542 365 1499 c 2
 365 -94 l 2
 365 -137 331 -150 288 -150 c 2
 238 -150 l 2
EndSplineSet
EndChar

StartChar: braceleft
Encoding: 91 123 145
Width: 928
VWidth: 0
Flags: HW
LayerCount: 2
Fore
SplineSet
412 1192 m 0
 412 1198 412 1206 412 1212 c 0
 412 1433 459 1543 685 1543 c 2
 729 1543 l 2
 771 1543 806 1529 806 1487 c 2
 806 1438 l 2
 806 1388 784 1375 736 1375 c 0
 734 1375 732 1375 730 1375 c 0
 618 1375 580 1354 580 1177 c 2
 580 1172 l 2
 580 1008 580 753 455 725 c 0
 448 723 445 718 445 712 c 0
 445 706 448 701 455 699 c 0
 579 672 580 424 580 260 c 2
 580 247 l 2
 580 70 618 49 730 49 c 0
 732 49 734 49 736 49 c 0
 784 49 806 36 806 -14 c 2
 806 -62 l 2
 806 -104 771 -119 729 -119 c 2
 685 -119 l 2
 459 -119 412 -9 412 212 c 0
 412 218 412 226 412 232 c 0
 412 548 374 609 282 609 c 0
 281 609 281 609 280 609 c 1
 280 608 217 608 217 608 c 1
 148 608 125 622 125 712 c 0
 125 802 148 816 217 816 c 2
 280 816 l 2
 281 816 283 816 284 816 c 0
 375 816 412 878 412 1192 c 0
EndSplineSet
EndChar

StartChar: braceright
Encoding: 93 125 146
Width: 927
VWidth: 0
Flags: HW
LayerCount: 2
Fore
SplineSet
515 232 m 0
 515 226 515 218 515 212 c 0
 515 -9 468 -119 242 -119 c 2
 198 -119 l 2
 156 -119 121 -104 121 -62 c 2
 121 -14 l 2
 121 36 143 49 191 49 c 0
 193 49 195 49 197 49 c 0
 309 49 347 70 347 247 c 2
 347 252 l 2
 347 416 347 671 472 699 c 0
 479 701 482 706 482 712 c 0
 482 718 479 723 472 725 c 0
 348 753 347 1000 347 1164 c 2
 347 1177 l 2
 347 1354 309 1375 197 1375 c 0
 195 1375 193 1375 191 1375 c 0
 143 1375 121 1388 121 1438 c 2
 121 1487 l 2
 121 1529 156 1543 198 1543 c 2
 242 1543 l 2
 468 1543 515 1433 515 1212 c 0
 515 1206 515 1198 515 1192 c 0
 515 878 552 816 643 816 c 2
 710 816 l 2
 779 816 802 802 802 712 c 0
 802 622 779 608 710 608 c 1
 710 608 647 608 647 609 c 1
 646 609 646 609 645 609 c 0
 553 609 515 548 515 232 c 0
EndSplineSet
EndChar

StartChar: bracketleft
Encoding: 59 91 147
Width: 991
VWidth: 0
Flags: HW
LayerCount: 2
Fore
SplineSet
238 -62 m 2
 195 -62 161 -28 161 16 c 2
 161 1437 l 2
 161 1480 195 1514 238 1514 c 2
 799 1514 l 2
 842 1514 866 1500 866 1457 c 2
 866 1403 l 2
 866 1360 842 1346 799 1346 c 2
 405 1346 l 2
 385 1346 378 1339 378 1319 c 2
 378 123 l 2
 378 103 385 96 405 96 c 2
 799 96 l 2
 842 96 866 83 866 40 c 2
 866 -5 l 2
 866 -48 842 -62 799 -62 c 2
 238 -62 l 2
EndSplineSet
EndChar

StartChar: bracketright
Encoding: 61 93 148
Width: 991
VWidth: 0
Flags: HW
LayerCount: 2
Fore
SplineSet
193 -62 m 2
 150 -62 126 -48 126 -5 c 2
 126 50 l 2
 126 93 150 106 193 106 c 2
 587 106 l 2
 607 106 614 113 614 133 c 2
 614 1330 l 2
 614 1350 607 1356 587 1356 c 2
 193 1356 l 2
 150 1356 126 1370 126 1413 c 2
 126 1457 l 2
 126 1500 150 1514 193 1514 c 2
 754 1514 l 2
 797 1514 831 1480 831 1437 c 2
 831 16 l 2
 831 -28 797 -62 754 -62 c 2
 193 -62 l 2
EndSplineSet
EndChar

StartChar: breve
Encoding: 363 728 149
Width: 1176
VWidth: 0
Flags: HW
LayerCount: 2
Fore
SplineSet
641 1185 m 0
 475 1185 323 1259 323 1498 c 1
 513 1498 l 1
 513 1387 560 1330 641 1330 c 0
 721 1330 769 1380 769 1498 c 1
 959 1498 l 1
 959 1259 806 1185 641 1185 c 0
EndSplineSet
EndChar

StartChar: brokenbar
Encoding: 100 166 150
Width: 509
VWidth: 0
Flags: HW
LayerCount: 2
Fore
SplineSet
217 -150 m 2
 174 -150 160 -116 160 -73 c 2
 160 509 l 2
 160 552 174 586 217 586 c 2
 292 586 l 2
 335 586 349 552 349 509 c 2
 349 -73 l 2
 349 -116 335 -150 292 -150 c 2
 217 -150 l 2
217 819 m 2
 174 819 160 853 160 896 c 2
 160 1478 l 2
 160 1521 174 1555 217 1555 c 2
 292 1555 l 2
 335 1555 349 1521 349 1478 c 2
 349 896 l 2
 349 853 335 819 292 819 c 2
 217 819 l 2
EndSplineSet
EndChar

StartChar: c
Encoding: 67 99 151
Width: 1538
VWidth: 0
Flags: HW
LayerCount: 2
Fore
SplineSet
872 -41 m 0
 548 -41 127 106 127 504 c 0
 127 912 546 1053 872 1053 c 0
 1032 1053 1230 1015 1367 932 c 1
 1388 918 1396 904 1396 890 c 0
 1396 884 1395 878 1392 872 c 2
 1366 813 l 2
 1358 794 1348 788 1337 788 c 0
 1322 788 1306 799 1292 806 c 0
 1211 850 1072 904 869 904 c 0
 626 904 345 788 346 504 c 1
 345 244 601 106 882 106 c 0
 1052 106 1204 170 1270 201 c 0
 1286 209 1299 212 1310 212 c 0
 1326 212 1336 204 1340 192 c 0
 1342 185 1369 133 1369 106 c 0
 1369 91 1361 79 1331 63 c 0
 1205 -3 1011 -41 872 -41 c 0
EndSplineSet
EndChar

StartChar: caron
Encoding: 362 711 153
Width: 846
VWidth: 0
Flags: HW
LayerCount: 2
Fore
SplineSet
377 1217 m 2
 330 1217 278 1237 243 1268 c 1
 81 1421 l 2
 74 1427 71 1436 71 1443 c 0
 71 1459 83 1473 100 1473 c 2
 133 1473 l 2
 179 1473 237 1458 277 1435 c 1
 386 1368 l 2
 395 1362 407 1360 418 1360 c 0
 429 1360 440 1362 450 1368 c 2
 560 1435 l 2
 599 1458 658 1473 704 1473 c 2
 736 1473 l 2
 754 1473 766 1459 766 1443 c 0
 766 1436 763 1427 756 1421 c 2
 593 1268 l 2
 559 1237 507 1217 460 1217 c 2
 377 1217 l 2
EndSplineSet
EndChar

StartChar: cedilla
Encoding: 118 184 158
Width: 716
VWidth: 0
Flags: HW
LayerCount: 2
Fore
SplineSet
249 -209 m 2
 312 -209 l 2
 337 -209 342 -224 342 -244 c 0
 342 -261 338 -281 338 -298 c 0
 338 -351 360 -394 410 -394 c 0
 457 -394 483 -354 483 -243 c 0
 483 -167 452 -90 402 -90 c 2
 363 -90 l 1
 363 -90 347 -91 347 -80 c 2
 347 -9 l 2
 347 1 350 8 363 8 c 2
 438 8 l 2
 546 8 619 -95 619 -206 c 0
 619 -384 547 -478 403 -478 c 0
 289 -478 199 -408 199 -300 c 0
 199 -258 207 -209 249 -209 c 2
EndSplineSet
EndChar

StartChar: cent
Encoding: 96 162 159
Width: 1540
VWidth: 0
Flags: HW
LayerCount: 2
Fore
SplineSet
766 114 m 1
 766 897 l 1
 553 868 346 749 347 504 c 1
 346 281 535 148 766 114 c 1
833 -204 m 2
 790 -204 766 -188 766 -145 c 2
 766 -37 l 1
 464 -7 128 148 128 504 c 0
 128 869 462 1021 766 1049 c 1
 766 1216 l 2
 766 1259 790 1271 833 1271 c 2
 858 1271 l 2
 901 1271 925 1257 925 1214 c 2
 925 1053 l 1
 1075 1045 1246 1007 1368 932 c 0
 1390 919 1398 905 1398 891 c 0
 1398 885 1397 879 1394 872 c 2
 1368 813 l 2
 1360 794 1350 787 1339 787 c 0
 1324 787 1308 798 1294 806 c 0
 1221 846 1099 894 925 903 c 1
 925 107 l 1
 1079 116 1211 173 1271 201 c 0
 1287 208 1300 212 1312 212 c 0
 1330 212 1343 204 1347 192 c 0
 1348 188 1367 139 1367 115 c 0
 1367 96 1356 78 1323 62 c 0
 1214 8 1057 -31 925 -40 c 1
 925 -147 l 2
 925 -190 901 -204 858 -204 c 2
 833 -204 l 2
EndSplineSet
EndChar

StartChar: circumflex
Encoding: 361 710 160
Width: 846
VWidth: 0
Flags: HW
LayerCount: 2
Fore
SplineSet
100 1217 m 2
 83 1217 71 1231 71 1247 c 0
 71 1253 74 1262 81 1268 c 2
 243 1421 l 2
 278 1453 330 1473 377 1473 c 2
 460 1473 l 2
 507 1473 558 1453 593 1421 c 2
 756 1268 l 2
 763 1262 766 1253 766 1247 c 0
 766 1231 754 1217 736 1217 c 2
 704 1217 l 2
 658 1217 599 1232 559 1255 c 1
 451 1322 l 2
 442 1328 430 1330 419 1330 c 0
 408 1330 397 1328 387 1322 c 2
 277 1255 l 1
 237 1232 179 1217 133 1217 c 2
 100 1217 l 2
EndSplineSet
EndChar

StartChar: colon
Encoding: 26 58 161
Width: 585
VWidth: 0
Flags: HW
LayerCount: 2
Fore
SplineSet
225 0 m 2
 182 0 148 34 148 77 c 2
 148 220 l 2
 148 263 182 297 225 297 c 2
 360 297 l 2
 403 297 437 263 437 220 c 2
 437 77 l 2
 437 34 403 0 360 0 c 2
 225 0 l 2
225 756 m 2
 182 756 148 790 148 833 c 2
 148 976 l 2
 148 1019 182 1053 225 1053 c 2
 360 1053 l 2
 403 1053 437 1019 437 976 c 2
 437 833 l 2
 437 790 403 756 360 756 c 2
 225 756 l 2
EndSplineSet
EndChar

StartChar: comma
Encoding: 12 44 162
Width: 594
VWidth: 0
Flags: HW
LayerCount: 2
Fore
SplineSet
198 -300 m 0
 193 -301 188 -301 183 -301 c 0
 154 -301 132 -286 132 -255 c 2
 132 -246 l 2
 132 -192 150 -198 193 -171 c 0
 262 -128 294 -51 294 -27 c 0
 294 -11 292 0 277 0 c 2
 192 0 l 2
 154 0 132 12 132 50 c 2
 132 253 l 2
 132 296 149 316 192 316 c 2
 389 316 l 2
 432 316 466 282 466 239 c 2
 466 97 l 2
 466 -140 336 -277 198 -300 c 0
EndSplineSet
EndChar

StartChar: copyright
Encoding: 103 169 163
Width: 1899
VWidth: 0
Flags: HW
LayerCount: 2
Fore
SplineSet
1249 530 m 0
 1277 530 1297 470 1297 438 c 0
 1297 416 1286 396 1270 389 c 0
 1188 351 1077 325 969 325 c 0
 737 325 508 444 508 726 c 0
 508 1011 758 1122 952 1122 c 0
 1068 1122 1185 1093 1265 1048 c 1
 1285 1038 1292 1019 1292 997 c 0
 1292 959 1271 907 1241 907 c 0
 1237 907 1232 909 1227 911 c 0
 1160 940 1066 967 982 967 c 0
 818 967 683 894 683 725 c 0
 683 544 818 474 976 474 c 0
 1066 474 1164 499 1235 526 c 0
 1240 529 1245 530 1249 530 c 0
952 80 m 0
 1433 80 1613 419 1613 713 c 0
 1613 1019 1433 1350 952 1350 c 0
 470 1350 290 1019 290 713 c 0
 290 419 470 80 952 80 c 0
949 -41 m 0
 405 -41 133 318 133 717 c 0
 133 1116 405 1475 949 1475 c 0
 1493 1475 1765 1116 1765 717 c 0
 1765 318 1493 -41 949 -41 c 0
EndSplineSet
EndChar

StartChar: currency
Encoding: 98 164 164
Width: 1307
VWidth: 0
Flags: HW
LayerCount: 2
Fore
SplineSet
653 426 m 0
 519 426 440 459 355 515 c 1
 324 484 l 2
 303 463 285 445 267 445 c 0
 259 445 250 448 242 457 c 2
 210 489 l 2
 200 499 196 509 196 518 c 0
 196 537 213 554 233 574 c 2
 258 599 l 1
 180 688 140 805 140 931 c 0
 140 1059 181 1177 260 1268 c 1
 233 1295 l 2
 212 1316 194 1334 194 1352 c 0
 194 1360 198 1369 207 1377 c 2
 239 1409 l 2
 249 1419 259 1423 268 1423 c 0
 287 1423 304 1406 324 1386 c 2
 358 1352 l 1
 443 1407 521 1440 653 1440 c 0
 785 1440 865 1407 950 1352 c 1
 983 1385 l 2
 1004 1406 1021 1423 1040 1423 c 0
 1049 1423 1058 1419 1068 1409 c 2
 1101 1377 l 2
 1109 1368 1113 1360 1113 1352 c 0
 1113 1334 1095 1316 1074 1295 c 2
 1047 1268 l 1
 1126 1177 1167 1059 1167 931 c 0
 1167 805 1127 689 1050 599 c 1
 1074 575 l 2
 1095 554 1112 537 1112 518 c 0
 1112 509 1108 500 1098 490 c 2
 1066 457 l 2
 1057 449 1049 445 1041 445 c 0
 1022 445 1004 463 984 484 c 2
 953 515 l 1
 867 459 787 426 653 426 c 0
653 529 m 0
 943 529 1051 744 1051 931 c 0
 1051 1127 943 1336 653 1336 c 0
 363 1336 255 1127 255 931 c 0
 255 744 363 529 653 529 c 0
EndSplineSet
EndChar

StartChar: d
Encoding: 68 100 165
Width: 1671
VWidth: 0
Flags: HW
LayerCount: 2
Fore
SplineSet
787 -41 m 0
 495 -41 129 106 129 504 c 0
 129 913 483 1053 806 1053 c 0
 1004 1053 1174 990 1281 858 c 0
 1285 854 1289 850 1292 845 c 1
 1292 1372 l 2
 1292 1415 1316 1438 1359 1438 c 2
 1444 1438 l 2
 1487 1438 1511 1415 1511 1372 c 2
 1511 67 l 2
 1511 24 1501 0 1458 0 c 2
 1445 0 l 2
 1420 0 1399 31 1379 71 c 1
 1356 120 1343 172 1327 220 c 1
 1214 50 992 -41 787 -41 c 0
818 116 m 0
 1078 116 1293 243 1292 504 c 1
 1293 790 1062 896 818 896 c 0
 579 896 348 792 348 504 c 0
 348 240 563 116 818 116 c 0
EndSplineSet
EndChar

StartChar: dagger
Encoding: 403 8224 166
Width: 1366
VWidth: 0
Flags: HW
LayerCount: 2
Fore
SplineSet
654 0 m 2
 611 0 582 29 582 72 c 2
 582 1284 l 2
 582 1304 570 1315 550 1315 c 2
 193 1315 l 2
 162 1315 141 1340 141 1371 c 2
 141 1419 l 2
 141 1455 162 1483 193 1483 c 2
 583 1483 l 1
 583 1878 l 2
 583 1921 612 1950 655 1950 c 2
 714 1950 l 2
 757 1950 786 1921 786 1878 c 2
 786 1483 l 1
 1172 1483 l 2
 1203 1483 1224 1455 1224 1419 c 2
 1224 1371 l 2
 1224 1340 1203 1315 1172 1315 c 2
 817 1315 l 2
 797 1315 785 1304 785 1284 c 2
 785 72 l 2
 785 29 756 0 713 0 c 2
 654 0 l 2
EndSplineSet
EndChar

StartChar: daggerdbl
Encoding: 404 8225 167
Width: 1366
VWidth: 0
Flags: HW
LayerCount: 2
Fore
SplineSet
654 0 m 2
 611 0 582 29 582 72 c 2
 582 558 l 1
 193 558 l 2
 162 558 141 583 141 614 c 2
 141 662 l 2
 141 698 162 726 193 726 c 2
 582 726 l 1
 582 1284 l 2
 582 1304 570 1315 550 1315 c 2
 193 1315 l 2
 162 1315 141 1340 141 1371 c 2
 141 1419 l 2
 141 1455 162 1483 193 1483 c 2
 583 1483 l 1
 583 1878 l 2
 583 1921 612 1950 655 1950 c 2
 714 1950 l 2
 757 1950 786 1921 786 1878 c 2
 786 1483 l 1
 1172 1483 l 2
 1203 1483 1224 1455 1224 1419 c 2
 1224 1371 l 2
 1224 1340 1203 1315 1172 1315 c 2
 817 1315 l 2
 797 1315 785 1304 785 1284 c 2
 785 726 l 1
 1172 726 l 2
 1203 726 1224 698 1224 662 c 2
 1224 614 l 2
 1224 583 1203 558 1172 558 c 2
 785 558 l 1
 785 72 l 2
 785 29 756 0 713 0 c 2
 654 0 l 2
EndSplineSet
EndChar

StartChar: dcroat
Encoding: 207 273 169
Width: 1671
VWidth: 0
Flags: HW
LayerCount: 2
Fore
SplineSet
787 -41 m 0
 495 -41 129 106 129 504 c 0
 129 913 483 1053 806 1053 c 0
 1004 1053 1174 990 1281 858 c 0
 1283 856 1285 854 1287 855 c 0
 1289 855 1290 856 1292 863 c 1
 1292 1160 l 1
 929 1160 l 2
 886 1160 872 1184 872 1227 c 2
 872 1249 l 2
 872 1292 886 1316 929 1316 c 2
 1292 1316 l 1
 1292 1372 l 2
 1292 1415 1316 1438 1359 1438 c 2
 1444 1438 l 2
 1487 1438 1511 1415 1511 1372 c 2
 1511 1316 l 1
 1611 1316 l 2
 1655 1316 1668 1292 1668 1249 c 2
 1668 1227 l 2
 1668 1184 1655 1160 1611 1160 c 2
 1511 1160 l 1
 1511 67 l 2
 1511 24 1501 0 1458 0 c 2
 1445 0 l 2
 1420 0 1399 31 1379 71 c 0
 1360 111 1349 152 1336 194 c 0
 1334 200 1330 207 1324 207 c 0
 1320 207 1316 204 1310 197 c 0
 1194 41 981 -41 787 -41 c 0
818 116 m 0
 1078 116 1293 243 1292 504 c 1
 1293 790 1062 896 818 896 c 0
 579 896 348 792 348 504 c 0
 348 240 563 116 818 116 c 0
EndSplineSet
EndChar

StartChar: degree
Encoding: 110 176 170
Width: 1345
VWidth: 0
Flags: HW
LayerCount: 2
Fore
SplineSet
675 108 m 0
 965 108 1073 324 1073 511 c 0
 1073 706 965 916 675 916 c 0
 385 916 277 706 277 511 c 0
 277 324 385 108 675 108 c 0
673 -9 m 0
 319 -9 142 240 142 514 c 0
 142 789 319 1037 673 1037 c 0
 1027 1037 1203 789 1203 514 c 0
 1203 240 1027 -9 673 -9 c 0
EndSplineSet
EndChar

StartChar: dieresis
Encoding: 102 168 171
Width: 1181
VWidth: 0
Flags: HW
LayerCount: 2
Fore
SplineSet
228 1184 m 2
 185 1184 151 1217 151 1260 c 2
 151 1356 l 2
 151 1399 185 1432 228 1432 c 2
 355 1432 l 2
 398 1432 432 1399 432 1356 c 2
 432 1260 l 2
 432 1217 398 1184 355 1184 c 2
 228 1184 l 2
827 1184 m 2
 784 1184 750 1217 750 1260 c 2
 750 1356 l 2
 750 1399 784 1432 827 1432 c 2
 954 1432 l 2
 997 1432 1031 1399 1031 1356 c 2
 1031 1260 l 2
 1031 1217 997 1184 954 1184 c 2
 827 1184 l 2
EndSplineSet
EndChar

StartChar: divide
Encoding: 181 247 172
Width: 1272
VWidth: 0
Flags: HW
LayerCount: 2
Fore
SplineSet
574 15 m 2
 531 15 497 49 497 92 c 2
 497 215 l 2
 497 258 531 292 574 292 c 2
 710 292 l 2
 753 292 787 258 787 215 c 2
 787 92 l 2
 787 49 753 15 710 15 c 2
 574 15 l 2
184 442 m 2
 141 442 117 466 117 509 c 2
 117 554 l 2
 117 597 141 621 184 621 c 2
 1088 621 l 2
 1131 621 1155 597 1155 554 c 2
 1155 509 l 2
 1155 466 1131 442 1088 442 c 2
 184 442 l 2
574 746 m 2
 531 746 497 780 497 823 c 2
 497 945 l 2
 497 988 531 1022 574 1022 c 2
 710 1022 l 2
 753 1022 787 988 787 945 c 2
 787 823 l 2
 787 780 753 746 710 746 c 2
 574 746 l 2
EndSplineSet
EndChar

StartChar: dotaccent
Encoding: 364 729 173
Width: 546
VWidth: 0
Flags: HW
LayerCount: 2
Fore
SplineSet
220 1397 m 2
 177 1397 143 1431 143 1474 c 2
 143 1617 l 2
 143 1660 177 1694 220 1694 c 2
 355 1694 l 2
 398 1694 432 1660 432 1617 c 2
 432 1474 l 2
 432 1431 398 1397 355 1397 c 2
 220 1397 l 2
EndSplineSet
EndChar

StartChar: dotlessi
Encoding: 239 305 174
Width: 538
VWidth: 0
Flags: HW
LayerCount: 2
Fore
SplineSet
227 0 m 2
 184 0 160 24 160 67 c 2
 160 939 l 2
 160 982 184 1006 227 1006 c 2
 312 1006 l 2
 355 1006 379 982 379 939 c 2
 379 67 l 2
 379 24 355 0 312 0 c 2
 227 0 l 2
EndSplineSet
EndChar

StartChar: uni0237
Encoding: 360 567 175
Width: 774
VWidth: 0
Flags: HW
LayerCount: 2
Fore
SplineSet
192 -379 m 2
 192 -379 106 -379 108 -380 c 1
 65 -380 50 -356 50 -313 c 2
 50 -268 l 2
 50 -225 65 -207 108 -207 c 2
 233 -207 l 2
 390 -207 396 -112 396 51 c 0
 396 64 396 79 396 93 c 2
 396 939 l 2
 396 982 420 1006 463 1006 c 2
 548 1006 l 2
 591 1006 614 982 614 939 c 2
 614 6 l 1
 612 -257 500 -379 196 -379 c 0
 195 -379 193 -379 192 -379 c 2
EndSplineSet
EndChar

StartChar: e
Encoding: 69 101 176
Width: 1599
VWidth: 0
Flags: HW
LayerCount: 2
Fore
SplineSet
847 -42 m 0
 495 -42 130 84 130 504 c 0
 130 911 508 1052 835 1052 c 0
 1266 1052 1416 814 1465 609 c 1
 1465 558 l 1
 1464 523 1442 450 1331 450 c 2
 372 450 l 2
 361 450 355 448 355 441 c 0
 356 316 436 107 860 107 c 0
 1123 107 1254 170 1320 201 c 0
 1337 209 1350 212 1361 212 c 0
 1377 212 1386 205 1390 194 c 0
 1392 189 1415 135 1415 111 c 0
 1415 96 1407 83 1379 70 c 0
 1254 8 1030 -42 847 -42 c 0
367 589 m 2
 1283 589 l 2
 1282 589 1281 591 1281 591 c 1
 1231 733 1160 902 833 902 c 0
 620 902 395 813 359 596 c 0
 359 592 360 589 367 589 c 2
EndSplineSet
EndChar

StartChar: eight
Encoding: 24 56 184
Width: 1930
VWidth: 0
Flags: HW
LayerCount: 2
Fore
SplineSet
966 -41 m 0
 508 -41 137 10 137 402 c 0
 137 559 271 693 392 751 c 1
 318 793 217 908 217 1058 c 0
 217 1356 507 1473 966 1473 c 0
 1429 1473 1695 1370 1695 1028 c 0
 1695 877 1599 734 1492 696 c 1
 1657 661 1795 543 1795 386 c 0
 1795 14 1427 -41 966 -41 c 0
966 133 m 0
 1421 133 1582 174 1582 397 c 0
 1582 521 1467 565 1152 604 c 0
 1009 622 779 658 546 687 c 1
 411 613 348 496 348 401 c 0
 348 168 575 133 966 133 c 0
1332 758 m 1
 1395 810 1503 884 1503 1024 c 0
 1503 1229 1349 1298 966 1298 c 0
 593 1298 428 1242 428 1058 c 0
 428 966 481 842 774 818 c 1
 774 818 1081 778 1332 758 c 1
EndSplineSet
EndChar

StartChar: equal
Encoding: 29 61 188
Width: 927
VWidth: 0
Flags: HW
LayerCount: 2
Fore
SplineSet
193 314 m 2
 150 314 137 328 137 371 c 2
 137 414 l 2
 137 457 150 470 193 470 c 2
 733 470 l 2
 776 470 790 457 790 414 c 2
 790 371 l 2
 790 328 776 314 733 314 c 2
 193 314 l 2
193 617 m 2
 150 617 137 630 137 673 c 2
 137 716 l 2
 137 759 150 772 193 772 c 2
 733 772 l 2
 776 772 790 759 790 716 c 2
 790 673 l 2
 790 630 776 617 733 617 c 2
 193 617 l 2
EndSplineSet
EndChar

StartChar: eth
Encoding: 174 240 189
Width: 1862
VWidth: 0
Flags: HW
LayerCount: 2
Fore
SplineSet
947 -42 m 0
 490 -42 128 60 128 425 c 0
 128 682 290 896 911 896 c 0
 1250 896 1450 814 1517 712 c 1
 1474 1009 1221 1165 1058 1252 c 1
 868 1047 l 2
 858 1036 845 1031 831 1031 c 0
 818 1031 805 1036 795 1046 c 2
 765 1074 l 2
 756 1083 749 1097 749 1112 c 0
 749 1125 754 1138 764 1148 c 2
 915 1311 l 1
 813 1336 709 1359 608 1382 c 1
 591 1390 577 1401 577 1419 c 0
 577 1424 579 1430 580 1436 c 2
 593 1495 l 1
 601 1515 604 1528 629 1528 c 0
 634 1528 640 1527 647 1526 c 0
 766 1510 899 1480 1031 1438 c 1
 1195 1615 l 2
 1205 1626 1218 1631 1232 1631 c 0
 1245 1631 1258 1626 1268 1616 c 0
 1294 1589 1299 1584 1300 1584 c 0
 1310 1574 1314 1561 1314 1548 c 0
 1314 1536 1310 1523 1300 1513 c 2
 1170 1373 l 1
 1502 1194 1731 866 1731 558 c 0
 1731 227 1536 -42 947 -42 c 0
947 131 m 0
 1317 131 1506 257 1506 457 c 0
 1506 707 1240 737 935 737 c 0
 456 737 348 606 348 433 c 0
 348 187 551 131 947 131 c 0
EndSplineSet
EndChar

StartChar: exclam
Encoding: 1 33 190
Width: 541
VWidth: 0
Flags: HW
LayerCount: 2
Fore
SplineSet
215 0 m 2
 172 0 148 24 148 67 c 2
 148 178 l 2
 148 221 172 245 215 245 c 2
 323 245 l 2
 366 245 390 221 390 178 c 2
 390 67 l 2
 390 24 366 0 323 0 c 2
 215 0 l 2
280 430 m 2
 237 430 236 453 234 496 c 1
 167 1364 l 5
 167 1409.23 188.991 1436 234 1436 c 2
 319 1436 l 2
 362 1436 389 1396 386 1364 c 2
 327 496 l 2
 324 453 324 430 281 430 c 2
 280 430 l 2
EndSplineSet
EndChar

StartChar: f
Encoding: 70 102 191
Width: 1219
VWidth: 0
Flags: HW
LayerCount: 2
Fore
SplineSet
438 0 m 2
 395 0 361 34 361 77 c 2
 361 823 l 2
 361 843 361 860 341 860 c 2
 189 860 l 2
 146 860 122 869 122 912 c 2
 122 945 l 2
 122 988 146 1006 189 1006 c 2
 339 1006 l 2
 361 1006 362 1019 362 1041 c 0
 361 1381 574 1475 786 1475 c 0
 945 1475 1021 1441 1037 1438 c 0
 1065 1431 1087 1416 1087 1388 c 2
 1087 1337 l 2
 1087 1300 1080 1293 1046 1293 c 0
 1041 1293 905 1327 839 1327 c 0
 616 1327 579 1200 579 1060 c 2
 579 1017 l 2
 579 1014 581 1006 591 1006 c 2
 996 1006 l 2
 1039 1006 1063 994 1063 951 c 2
 1063 912 l 2
 1063 869 1039 860 996 860 c 2
 602 860 l 2
 582 860 579 843 579 823 c 2
 579 77 l 2
 579 34 545 0 502 0 c 2
 438 0 l 2
EndSplineSet
EndChar

StartChar: five
Encoding: 21 53 192
Width: 2091
VWidth: 0
Flags: HW
LayerCount: 2
Fore
SplineSet
940 -40 m 1
 699 -39 336 34 224 67 c 0
 187 77 171 94 171 124 c 0
 171 128 170 127 179 190 c 0
 183 221 197 234 223 234 c 0
 230 234 237 233 246 231 c 0
 285 224 617 133 951 133 c 0
 1580 133 1741 225 1741 452 c 0
 1741 658 1562 761 1008 761 c 0
 536 761 466 598 314 598 c 2
 271 598 l 2
 204 598 212 639 208 680 c 2
 144 1318 l 1
 144 1393 165 1438 234 1438 c 2
 1765 1438 l 2
 1803 1438 1818 1410 1818 1380 c 0
 1818 1358.14 1812.26 1337.36 1809 1317 c 0
 1805 1286 1791 1273 1765 1273 c 2
 427 1295 l 2
 387 1295 360 1269 360 1229 c 0
 360 1227 360 1225 360 1223 c 2
 378 767 l 1
 512 854 681 934 1131 934 c 0
 1786 934 1958 728 1958 447 c 0
 1958 56 1548 -40 943 -40 c 2
 940 -40 l 1
EndSplineSet
EndChar

StartChar: florin
Encoding: 317 402 193
Width: 1107
VWidth: 0
Flags: HW
LayerCount: 2
Fore
SplineSet
661 823 m 6
 660.987 266.5 l 6
 660.979 -67.3916 528.433 -160 318 -160 c 4
 159 -160 132 -127 116 -124 c 4
 88 -117 66 -102 66 -74 c 6
 66 -22 l 6
 66 15 74 22 108 22 c 4
 113 22 228.209 -17.2461 294 -12 c 4
 444.5 0 443 114 443 254 c 6
 443 823 l 6
 443 843 443 860 423 860 c 6
 271 860 l 6
 228 860 204 869 204 912 c 6
 204 945 l 6
 204 988 228 1006 271 1006 c 6
 421 1006 l 6
 443 1006 444 1019 444 1041 c 4
 443 1381 576 1475 788 1475 c 4
 947 1475 973 1441 989 1438 c 4
 1017 1431 1039 1416 1039 1388 c 6
 1039 1337 l 6
 1039 1300 1032 1293 998 1293 c 4
 993 1293 907 1327 841 1327 c 4
 674.5 1327 661 1200 661 1060 c 6
 661 1017 l 6
 661 1014 663 1006 673 1006 c 6
 948 1006 l 6
 991 1006 1015 994 1015 951 c 6
 1015 912 l 6
 1015 869 991 860 948 860 c 6
 684 860 l 6
 664 860 661 843 661 823 c 6
EndSplineSet
EndChar

StartChar: four
Encoding: 20 52 194
Width: 1658
VWidth: 0
Flags: HW
LayerCount: 2
Fore
SplineSet
1067 4 m 2
 1024 4 1000 28 1000 71 c 2
 1000 287 l 1
 191 287 l 2
 154 287 121 306 121 338 c 0
 121 343 122 348 124 354 c 2
 446 1371 l 2
 459 1412 470 1438 513 1438 c 2
 596 1438 l 2
 633 1438 666 1419 666 1387 c 0
 666 1382 665 1377 663 1371 c 2
 391 484 l 2
 390 481 390 478 390 474 c 0
 390 461 401 451 418 451 c 2
 1000 451 l 1
 1000 1371 l 2
 1000 1414 1024 1438 1067 1438 c 2
 1150 1438 l 2
 1193 1438 1217 1414 1217 1371 c 2
 1217 451 l 1
 1473 451 l 2
 1516 451 1539 427 1539 384 c 2
 1539 354 l 2
 1539 311 1516 287 1473 287 c 2
 1217 287 l 1
 1217 71 l 2
 1217 28 1193 4 1150 4 c 2
 1067 4 l 2
EndSplineSet
EndChar

StartChar: fraction
Encoding: 410 8260 195
Width: 1231
VWidth: 0
Flags: HW
LayerCount: 2
Fore
SplineSet
95 -205 m 2
 83 -205 78 -197 78 -187 c 0
 78 -182 79 -176 82 -171 c 2
 978 1618 l 2
 988 1638 990 1648 1017 1648 c 1
 1017 1648 1031 1648 1051 1648 c 0
 1149 1648 l 2
 1161 1648 1166 1640 1166 1629 c 0
 1166 1624 1165 1618 1163 1613 c 0
 1162 1613 277 -170 277 -170 c 2
 259 -205 253 -205 227 -205 c 2
 95 -205 l 2
EndSplineSet
EndChar

StartChar: g
Encoding: 71 103 196
Width: 1547
VWidth: 0
Flags: HW
LayerCount: 2
Fore
SplineSet
773 -515 m 0
 334 -515 159 -417 159 -281 c 0
 159 -135 253 -51 370 21 c 0
 376 24 388 34 388 39 c 0
 388 45 375 48 368 50 c 0
 235 80 165 97 165 184 c 0
 165 279 249 374 327 423 c 0
 335 428 346 433 346 441 c 0
 346 448 336 448 330 451 c 0
 185 527 140 615 140 706 c 0
 140 889 282 1052 755 1052 c 0
 809 1052 865 1044 908 1039 c 0
 926 1037 944 1050 948 1067 c 1
 1070 1350 l 1
 1077 1389 1112 1418 1152 1418 c 2
 1254 1418 l 2
 1277 1418 1293 1399 1293 1379 c 0
 1293 1372 1291 1365 1287 1359 c 2
 1051 1041 l 2
 1041 1026 1048 1005 1064 1000 c 0
 1250 948 1355 824 1355 706 c 0
 1355 513 1253 356 792 356 c 0
 678 356 576 366 500 383 c 0
 499 383 498 383 497 383 c 0
 480 383 444 363 420 345 c 0
 384 317 351 277 351 246 c 0
 351 208 351 164 509 164 c 2
 918 164 l 2
 1332 164 1464 18 1464 -177 c 0
 1464 -408 1247 -515 773 -515 c 0
786 -359 m 0
 1202 -359 1282 -272 1282 -137 c 0
 1282 -32 1125 17 900 17 c 2
 600 17 l 2
 506 17 361 -102 361 -210 c 0
 361 -282 413 -359 786 -359 c 0
755 502 m 0
 1131 502 1153 609 1153 699 c 0
 1153 798 1116 902 749 902 c 0
 398 902 350 793 350 710 c 0
 350 614 403 502 755 502 c 0
EndSplineSet
EndChar

StartChar: germandbls
Encoding: 157 223 201
Width: 1706
VWidth: 0
Flags: HW
LayerCount: 2
Fore
SplineSet
213 0 m 2
 170 0 156 34 156 77 c 2
 156 969 l 2
 156 1232 237 1438 726 1438 c 2
 780 1438 l 2
 1208 1438 1448 1339 1448 1040 c 0
 1448 929 1387 841 1257 781 c 0
 1244 775 1245 766 1260 762 c 0
 1446 712 1575 590 1575 424 c 0
 1575 96 1243 0 744 0 c 2
 561 0 l 2
 537 0 530 8 530 24 c 2
 530 134 l 2
 530 149 543 156 561 155 c 1
 761 155 l 2
 1269 155 1363 243 1363 420 c 0
 1363 578 1243 665 813 665 c 2
 594 665 l 2
 571 665 563 674 563 693 c 2
 563 803 l 2
 563 826 572 833 594 833 c 2
 823 833 l 2
 1177 833 1256 942 1256 1042 c 0
 1256 1206 1165 1282 708 1282 c 0
 473 1282 370 1198 370 976 c 2
 370 76 l 2
 370 31 353 0 302 0 c 2
 213 0 l 2
EndSplineSet
EndChar

StartChar: grave
Encoding: 64 96 202
Width: 1745
VWidth: 0
Flags: HW
LayerCount: 2
Fore
SplineSet
847 1174 m 2
 818 1174 801 1204 792 1218 c 2
 579 1542 l 2
 567 1559 561 1572 561 1580 c 0
 561 1591 573 1596 599 1596 c 2
 769 1595 l 2
 792 1595 804 1592 820 1577 c 1
 828 1566 831 1550 834 1539 c 1
 888 1211 l 2
 890 1203 890 1196 890 1191 c 0
 890 1176 884 1174 877 1174 c 0
 876 1174 875 1174 874 1174 c 2
 847 1174 l 2
EndSplineSet
EndChar

StartChar: greater
Encoding: 30 62 203
Width: 1209
VWidth: 0
Flags: HW
LayerCount: 2
Fore
SplineSet
170 -21 m 0
 151 -21 142 -7 142 21 c 2
 142 97 l 2
 142 140 166 156 209 180 c 2
 918 568 l 2
 924 571 927 576 927 581 c 0
 927 585 924 590 918 593 c 2
 209 940 l 2
 162 963 142 991 142 1034 c 2
 142 1110 l 2
 142 1135 149 1148 165 1148 c 0
 176 1148 188 1139 209 1130 c 1
 1019 731 l 1
 1063 711 1085 665 1085 625 c 2
 1085 523 l 2
 1085 484 1059 450 1019 427 c 1
 209 -9 l 2
 193 -17 180 -21 170 -21 c 0
EndSplineSet
EndChar

StartChar: greaterequal
Encoding: 417 8805 204
Width: 1209
VWidth: 0
Flags: HW
LayerCount: 2
Fore
SplineSet
183 0 m 2
 1008 0 l 2
 1052 0 1064 13 1064 57 c 2
 1064 104 l 2
 1064 148 1052 161 1008 161 c 2
 183 161 l 2
 139 161 123 148 123 104 c 2
 123 57 l 2
 123 13 139 0 183 0 c 2
145 247 m 0
 157 247 169 256 189 265 c 2
 999 554 l 1
 1044 574 1065 620 1065 660 c 2
 1065 762 l 2
 1065 801 1039 835 1000 858 c 1
 189 1183 l 2
 173 1189 161 1195 151 1195 c 0
 132 1195 122 1181 122 1153 c 2
 122 1078 l 2
 122 1035 143 1012 189 994 c 2
 898 717 l 2
 904 714 907 709 907 705 c 0
 907 701 904 695 898 693 c 2
 189 455 l 2
 143 432 122 404 122 361 c 2
 122 285 l 2
 122 260 130 247 145 247 c 0
EndSplineSet
EndChar

StartChar: guillemotleft
Encoding: 105 171 205
Width: 1344
VWidth: 0
Flags: HW
LayerCount: 2
Fore
SplineSet
651 251 m 0
 646 251 639 254 633 256 c 1
 182 597 l 2
 150 622 123 638 123 679 c 2
 123 736 l 2
 123 777 150 793 183 817 c 2
 633 1145 l 1
 638 1146 644 1148 650 1148 c 0
 672 1148 692 1132 692 1107 c 2
 692 1033 l 2
 692 993 663 976 630 955 c 1
 309 722 l 1
 303 719 300 714 300 709 c 0
 300 704 303 699 309 696 c 1
 630 461 l 1
 664 441 692 423 692 382 c 2
 692 292 l 2
 692 268 672 251 651 251 c 0
1160 251 m 0
 1154 251 1148 254 1141 256 c 1
 690 597 l 1
 659 622 632 638 632 679 c 2
 632 736 l 2
 632 777 659 793 692 817 c 2
 1140 1145 l 1
 1147 1146 1153 1148 1159 1148 c 0
 1180 1148 1200 1132 1200 1107 c 2
 1200 1033 l 2
 1200 993 1171 976 1138 955 c 1
 818 722 l 1
 812 719 809 714 809 709 c 0
 809 704 812 699 818 696 c 1
 1138 461 l 1
 1172 441 1200 423 1200 382 c 2
 1200 292 l 2
 1200 268 1180 251 1160 251 c 0
EndSplineSet
EndChar

StartChar: guillemotright
Encoding: 121 187 206
Width: 1352
VWidth: 0
Flags: HW
LayerCount: 2
Fore
SplineSet
184 251 m 0
 164 251 144 268 144 292 c 2
 144 366 l 2
 144 407 172 423 206 445 c 1
 527 677 l 2
 533 681 536 686 536 691 c 0
 536 695 532 700 527 704 c 2
 206 939 l 1
 171 959 144 976 144 1018 c 2
 144 1107 l 2
 144 1132 164 1148 184 1148 c 0
 190 1148 197 1145 202 1144 c 1
 653 802 l 2
 685 778 713 761 713 720 c 2
 713 664 l 2
 713 623 685 607 653 582 c 1
 203 255 l 1
 198 253 192 251 184 251 c 0
701 251 m 0
 680 251 661 268 661 292 c 2
 661 366 l 2
 661 407 690 423 723 445 c 1
 1043 677 l 2
 1049 681 1052 686 1052 691 c 0
 1052 695 1049 700 1043 704 c 2
 723 939 l 1
 688 959 661 976 661 1018 c 2
 661 1107 l 2
 661 1132 680 1148 700 1148 c 0
 706 1148 713 1145 719 1144 c 1
 1170 802 l 2
 1202 778 1229 761 1229 720 c 2
 1229 664 l 2
 1229 623 1202 607 1169 582 c 2
 720 255 l 1
 714 253 708 251 701 251 c 0
EndSplineSet
EndChar

StartChar: guilsinglleft
Encoding: 408 8249 207
Width: 708
VWidth: 0
Flags: HW
LayerCount: 2
Fore
SplineSet
597 251 m 0
 591 251 584 254 578 256 c 1
 127 597 l 2
 95 622 68 638 68 679 c 2
 68 736 l 2
 68 777 95 793 128 817 c 2
 578 1145 l 1
 583 1146 589 1148 596 1148 c 0
 617 1148 637 1132 637 1107 c 2
 637 1033 l 2
 637 993 609 976 575 955 c 1
 254 722 l 1
 248 719 245 714 245 709 c 0
 245 704 248 699 254 696 c 1
 575 461 l 1
 610 441 637 423 637 382 c 2
 637 292 l 2
 637 268 617 251 597 251 c 0
EndSplineSet
EndChar

StartChar: guilsinglright
Encoding: 409 8250 208
Width: 707
VWidth: 0
Flags: HW
LayerCount: 2
Fore
SplineSet
113 251 m 0
 91 251 72 268 72 292 c 2
 72 366 l 2
 72 407 101 423 134 445 c 1
 454 677 l 2
 460 681 463 686 463 691 c 0
 463 695 460 700 454 704 c 2
 134 939 l 1
 100 959 72 976 72 1018 c 2
 72 1107 l 2
 72 1132 91 1148 111 1148 c 0
 117 1148 124 1145 130 1144 c 1
 581 802 l 2
 613 778 640 761 640 720 c 2
 640 664 l 2
 640 623 613 607 580 582 c 2
 131 255 l 1
 125 253 119 251 113 251 c 0
EndSplineSet
EndChar

StartChar: h
Encoding: 72 104 209
Width: 1534
VWidth: 0
Flags: HW
LayerCount: 2
Fore
SplineSet
227 0 m 2
 184 0 160 24 160 67 c 2
 160 1371 l 2
 160 1414 184 1438 227 1438 c 2
 312 1438 l 2
 355 1438 379 1414 379 1371 c 2
 379 852 l 1
 388 846 l 1
 517 993 694 1052 875 1052 c 0
 1186 1052 1391 889 1391 553 c 2
 1391 67 l 2
 1391 24 1367 0 1324 0 c 2
 1240 0 l 2
 1197 0 1173 24 1173 67 c 2
 1173 609 l 2
 1173 836 1023 904 837 904 c 0
 640 904 379 742 379 609 c 2
 379 67 l 2
 379 24 356 0 313 0 c 2
 227 0 l 2
EndSplineSet
EndChar

StartChar: hbar
Encoding: 229 295 210
Width: 1534
VWidth: 0
Flags: HW
LayerCount: 2
Fore
SplineSet
227 0 m 2
 184 0 160 24 160 67 c 2
 160 1160 l 1
 57 1160 l 2
 14 1160 0 1184 0 1227 c 2
 0 1249 l 2
 0 1292 14 1316 57 1316 c 2
 160 1316 l 1
 160 1371 l 2
 160 1414 184 1438 227 1438 c 2
 312 1438 l 2
 355 1438 379 1414 379 1371 c 2
 379 1316 l 1
 639 1316 l 2
 682 1316 696 1292 696 1249 c 2
 696 1227 l 2
 696 1184 682 1160 639 1160 c 2
 379 1160 l 1
 379 852 l 1
 388 846 l 1
 517 993 694 1052 875 1052 c 0
 1186 1052 1391 889 1391 553 c 2
 1391 67 l 2
 1391 24 1367 0 1324 0 c 2
 1240 0 l 2
 1197 0 1173 24 1173 67 c 2
 1173 609 l 2
 1173 836 1023 904 837 904 c 0
 640 904 379 742 379 609 c 2
 379 67 l 2
 379 24 356 0 313 0 c 2
 227 0 l 2
EndSplineSet
EndChar

StartChar: hungarumlaut
Encoding: 368 733 212
Width: 1781
VWidth: 0
Flags: HW
LayerCount: 2
Fore
SplineSet
1038 1301 m 2
 1020 1301 l 2
 991 1301 978 1306 978 1333 c 0
 978 1342 979 1354 982 1368 c 2
 1044 1677 l 2
 1052 1720 1072 1732 1116 1732 c 2
 1279 1732 l 2
 1299 1732 1307 1720 1307 1704 c 0
 1307 1693 1302 1679 1295 1667 c 2
 1094 1340 l 2
 1079 1316 1076 1301 1038 1301 c 2
678 1301 m 2
 660 1301 l 2
 631 1301 618 1306 618 1333 c 0
 618 1342 619 1354 622 1368 c 2
 686 1677 l 2
 694 1720 712 1732 756 1732 c 2
 919 1732 l 2
 939 1732 947 1720 947 1704 c 0
 947 1693 942 1679 935 1667 c 2
 734 1340 l 2
 719 1316 716 1301 678 1301 c 2
EndSplineSet
EndChar

StartChar: hyphen
Encoding: 13 45 213
Width: 827
VWidth: 0
Flags: HW
LayerCount: 2
Fore
SplineSet
179 489 m 2
 136 489 121 502 121 545 c 2
 121 594 l 2
 121 637 136 650 179 650 c 2
 650 650 l 2
 693 650 706 637 706 594 c 2
 706 545 l 2
 706 502 693 489 650 489 c 2
 179 489 l 2
EndSplineSet
EndChar

StartChar: i
Encoding: 73 105 214
Width: 538
VWidth: 0
Flags: HW
LayerCount: 2
Fore
SplineSet
227 0 m 2
 184 0 160 24 160 67 c 2
 160 939 l 2
 160 982 184 1006 227 1006 c 2
 312 1006 l 2
 355 1006 379 982 379 939 c 2
 379 67 l 2
 379 24 355 0 312 0 c 2
 227 0 l 2
227 1180 m 2
 184 1180 160 1203 160 1246 c 2
 160 1341 l 2
 160 1384 184 1408 227 1408 c 2
 312 1408 l 2
 355 1408 379 1384 379 1341 c 2
 379 1246 l 2
 379 1203 355 1180 312 1180 c 2
 227 1180 l 2
EndSplineSet
EndChar

StartChar: j
Encoding: 74 106 224
Width: 774
VWidth: 0
Flags: HW
LayerCount: 2
Fore
SplineSet
108 -379 m 2
 65 -379 50 -355.358 50 -313 c 2
 50 -268 l 2
 50 -225 65 -207 108 -207 c 2
 233 -207 l 2
 390 -207 396 -112 396 51 c 2
 396 939 l 2
 396 982 420 1006 463 1006 c 2
 548 1006 l 2
 591 1006 614 982 614 939 c 2
 614 6 l 1
 612 -257 500 -379 196 -379 c 2
 108 -379 l 2
456 1180 m 2
 413 1180 389 1203 389 1246 c 2
 389 1341 l 2
 389 1384 413 1408 456 1408 c 2
 541 1408 l 2
 584 1408 607 1384 607 1341 c 2
 607 1246 l 2
 607 1203 584 1180 541 1180 c 2
 456 1180 l 2
EndSplineSet
EndChar

StartChar: k
Encoding: 75 107 226
Width: 1677
VWidth: 0
Flags: HW
LayerCount: 2
Fore
SplineSet
227 0 m 2
 184 0 160 24 160 67 c 2
 160 1370 l 2
 160 1413 184 1437 227 1437 c 2
 312 1437 l 2
 355 1437 379 1413 379 1370 c 2
 379 474 l 2
 379 468 380 465 385 465 c 0
 386 465 389 465 391 467 c 2
 1157 938 l 1
 1215 975 1264 1006 1307 1006 c 2
 1490 1006 l 2
 1510 1006 1520 999 1520 989 c 0
 1520 976 1506 958 1473 938 c 2
 865 563 l 2
 860 560 859 558 859 555 c 0
 859 551 864 548 866 547 c 2
 1538 67 l 2
 1561 50 1572 34 1572 22 c 0
 1572 9 1559 0 1536 0 c 2
 1382 0 l 2
 1339 0 1298 31 1250 67 c 2
 701 468 l 2
 697 471 693 476 685 476 c 0
 682 476 677 475 671 471 c 0
 601 431 394 313 391 311 c 0
 383 306 379 301 379 290 c 2
 379 67 l 2
 379 24 355 0 312 0 c 2
 227 0 l 2
EndSplineSet
EndChar

StartChar: kgreenlandic
Encoding: 246 312 228
Width: 1698
VWidth: 0
Flags: HW
LayerCount: 2
Fore
SplineSet
227 0 m 2
 184 0 160 24 160 67 c 2
 160 939 l 2
 160 982 184 1006 227 1006 c 2
 312 1006 l 2
 355 1006 379 982 379 939 c 2
 379 474 l 2
 379 468 380 465 385 465 c 0
 386 465 389 465 391 467 c 2
 1157 938 l 1
 1215 975 1264 1006 1307 1006 c 2
 1490 1006 l 2
 1510 1006 1520 999 1520 989 c 0
 1520 976 1506 958 1473 938 c 2
 865 563 l 2
 860 560 859 558 859 555 c 0
 859 551 864 548 866 547 c 2
 1538 67 l 2
 1561 50 1572 34 1572 22 c 0
 1572 9 1559 0 1536 0 c 2
 1382 0 l 2
 1339 0 1298 31 1250 67 c 2
 701 468 l 2
 697 471 693 476 685 476 c 0
 682 476 677 475 671 471 c 0
 601 431 394 313 391 311 c 0
 383 306 379 301 379 290 c 2
 379 67 l 2
 379 24 355 0 312 0 c 2
 227 0 l 2
EndSplineSet
EndChar

StartChar: l
Encoding: 76 108 229
Width: 538
VWidth: 0
Flags: HW
LayerCount: 2
Fore
SplineSet
227 0 m 2
 184 0 160 24 160 67 c 2
 160 1370 l 2
 160 1413 184 1437 227 1437 c 2
 312 1437 l 2
 355 1437 378 1413 378 1370 c 2
 378 67 l 2
 378 24 355 0 312 0 c 2
 227 0 l 2
EndSplineSet
EndChar

StartChar: less
Encoding: 28 60 234
Width: 1209
VWidth: 0
Flags: HW
LayerCount: 2
Fore
SplineSet
1042 -21 m 0
 1030 -21 1018 -12 998 -3 c 2
 188 396 l 1
 143 416 122 462 122 502 c 2
 122 604 l 2
 122 643 148 677 187 700 c 1
 998 1136 l 2
 1013 1144 1026 1148 1036 1148 c 0
 1055 1148 1065 1134 1065 1106 c 2
 1065 1031 l 2
 1065 988 1041 971 998 947 c 2
 289 559 l 2
 283 556 280 551 280 547 c 0
 280 543 283 538 289 535 c 2
 998 187 l 2
 1044 164 1065 136 1065 93 c 2
 1065 17 l 2
 1065 -8 1057 -21 1042 -21 c 0
EndSplineSet
EndChar

StartChar: lessequal
Encoding: 416 8804 235
Width: 1209
VWidth: 0
Flags: HW
LayerCount: 2
Fore
SplineSet
183 0 m 2
 1007.5 0 l 2
 1051.5 0 1063.5 13 1063.5 57 c 2
 1063.5 104 l 2
 1063.5 148 1051.5 161 1007.5 161 c 2
 183 161 l 2
 139 161 123 148 123 104 c 2
 123 57 l 2
 123 13 139 0 183 0 c 2
1042 247 m 0
 1030 247 1018 256 998 265 c 2
 188 554 l 1
 143 574 122 620 122 660 c 2
 122 762 l 2
 122 801 148 835 187 858 c 1
 998 1183 l 2
 1013.78 1189.32 1026 1195 1036 1195 c 0
 1055 1195 1065 1181 1065 1153 c 2
 1065 1078 l 2
 1065 1035 1043.87 1011.92 998 994 c 2
 289 717 l 2
 283 714 280 709 280 705 c 0
 280 701 282.64 695.135 289 693 c 2
 998 455 l 2
 1044 432 1065 404 1065 361 c 2
 1065 285 l 2
 1065 260 1057 247 1042 247 c 0
EndSplineSet
EndChar

StartChar: logicalnot
Encoding: 106 172 236
Width: 1254
VWidth: 0
Flags: HW
LayerCount: 2
Fore
SplineSet
951 241 m 2
 908 241 894 275 894 318 c 2
 894 581 l 2
 894 601 877 618 857 618 c 2
 181 618 l 2
 138 618 125 632 125 675 c 2
 125 736 l 2
 125 779 138 792 181 792 c 2
 1039 792 l 2
 1082 792 1116 768 1116 725 c 2
 1116 318 l 2
 1116 275 1102 241 1059 241 c 2
 951 241 l 2
EndSplineSet
EndChar

StartChar: m
Encoding: 77 109 237
Width: 2523
VWidth: 0
Flags: HW
LayerCount: 2
Fore
SplineSet
219 0 m 2
 176 0 152 24 152 67 c 2
 152 929 l 2
 152 972 165 1006 208 1006 c 2
 226 1006 l 2
 273 1006 295 992 305 942 c 2
 331 824 l 1
 336 816 338 811 346 811 c 0
 354 811 360 819 366 826 c 0
 496 987 681 1052 870 1052 c 0
 1085 1052 1232 982 1310 821 c 1
 1314 810 1316 799 1328 799 c 0
 1336 799 1339 806 1353 825 c 0
 1478 990 1669 1052 1859 1052 c 0
 2171 1052 2379 888 2379 553 c 2
 2379 67 l 2
 2379 24 2356 0 2313 0 c 2
 2228 0 l 2
 2185 0 2161 24 2161 67 c 2
 2161 609 l 2
 2161 835 2006 905 1820 905 c 0
 1620 905 1376 739 1376 610 c 0
 1376 605 1375 606 1374 607 c 1
 1374 67 l 2
 1374 24 1350 0 1307 0 c 2
 1222 0 l 2
 1179 0 1156 24 1156 67 c 2
 1156 609 l 2
 1156 836 1017 904 830 904 c 0
 633 904 371 743 371 611 c 2
 371 67 l 2
 371 24 348 0 305 0 c 2
 219 0 l 2
EndSplineSet
EndChar

StartChar: macron
Encoding: 109 175 238
Width: 1050
VWidth: 0
Flags: HW
LayerCount: 2
Fore
SplineSet
183 694 m 2
 140 694 127 718 127 761 c 2
 127 803 l 2
 127 846 140 870 183 870 c 2
 870 870 l 2
 913 870 927 846 927 803 c 2
 927 761 l 2
 927 718 913 694 870 694 c 2
 183 694 l 2
EndSplineSet
EndChar

StartChar: minus
Encoding: 413 8722 239
Width: 1277
VWidth: 0
Flags: HW
LayerCount: 2
Fore
SplineSet
194 601 m 2
 151 601 127 625 127 668 c 2
 127 715 l 2
 127 758 151 782 194 782 c 2
 1084 782 l 2
 1127 782 1151 758 1151 715 c 2
 1151 668 l 2
 1151 626 1127 601 1084 601 c 2
 194 601 l 2
EndSplineSet
EndChar

StartChar: multiply
Encoding: 149 215 240
Width: 1116
VWidth: 0
Flags: HW
LayerCount: 2
Fore
SplineSet
263 259 m 0
 244 259 224 267 209 282 c 2
 167 326 l 2
 152 342 145 361 145 381 c 0
 145 401 150 418 167 435 c 0
 172 440 279 549 408 679 c 1
 283 801 177 902 159 920 c 0
 141 938 136 955 136 975 c 0
 136 994 144 1014 159 1029 c 2
 203 1071 l 2
 219 1086 239 1093 258 1093 c 0
 279 1093 296 1088 312 1071 c 0
 317 1066 426 959 557 829 c 1
 687 961 795 1071 803 1079 c 0
 822 1098 838 1102 858 1102 c 0
 878 1102 897 1095 912 1079 c 2
 948 1042 l 2
 963 1027 971 1007 971 987 c 0
 971 968 964 950 948 933 c 0
 943 928 835 816 706 682 c 1
 841 549 948 443 956 435 c 0
 976 416 979 400 979 380 c 0
 979 360 972 341 957 326 c 2
 919 290 l 2
 904 275 885 267 864 267 c 0
 845 267 827 274 811 290 c 0
 805 295 694 402 560 532 c 1
 438 406 336 300 318 282 c 0
 300 264 283 259 263 259 c 0
EndSplineSet
EndChar

StartChar: n
Encoding: 78 110 241
Width: 1529
VWidth: 0
Flags: HW
LayerCount: 2
Fore
SplineSet
219 0 m 2
 176 0 152 24 152 67 c 2
 152 929 l 2
 152 972 165 1006 208 1006 c 2
 226 1006 l 2
 273 1006 295 992 305 942 c 2
 331 824 l 1
 336 816 338 811 346 811 c 0
 354 811 360 819 366 826 c 0
 496 987 680 1052 869 1052 c 0
 1177 1052 1386 888 1386 553 c 2
 1386 67 l 2
 1386 24 1362 0 1319 0 c 2
 1234 0 l 2
 1191 0 1168 24 1168 67 c 2
 1168 609 l 2
 1168 836 1015 905 829 905 c 0
 632 905 371 742 371 609 c 2
 371 67 l 2
 371 24 348 0 305 0 c 2
 219 0 l 2
EndSplineSet
EndChar

StartChar: nine
Encoding: 25 57 246
Width: 1859
VWidth: 0
Flags: HW
LayerCount: 2
Fore
SplineSet
877 -42 m 0
 696 -42 434 4 314 53 c 0
 297 59 287 72 287 90 c 0
 287 95 287 100 289 105 c 2
 320 197 l 2
 326 215 341 223 355 223 c 0
 360 223 365 222 370 220 c 0
 458 180 729 131 899 131 c 0
 1333 131 1495 277 1495 520 c 2
 1495 584 l 1
 1260 550 1063 535 899 535 c 0
 291 535 131 748 131 1004 c 0
 131 1369 490 1472 947 1472 c 0
 1600 1472 1719 1135 1719 692 c 0
 1719 133 1439 -42 877 -42 c 0
905 693 m 0
 1059 693 1256 708 1505 743 c 1
 1505 814 l 2
 1505 1120.98 1340 1299 947 1299 c 0
 552 1299 347 1243 347 997 c 0
 347 824 451 693 905 693 c 0
EndSplineSet
EndChar

StartChar: notequal
Encoding: 415 8800 247
Width: 943
VWidth: 0
Flags: HW
LayerCount: 2
Fore
SplineSet
221 -69 m 2
 203 -69 202 -52 208 -35 c 2
 326 314 l 1
 196 314 l 2
 153 314 140 328 140 371 c 2
 140 414 l 2
 140 457 153 470 196 470 c 2
 379 470 l 1
 442 657 l 1
 206 657 l 2
 163 657 150 670 150 713 c 2
 150 756 l 2
 150 799 163 812 206 812 c 2
 494 812 l 1
 618 1181 l 2
 626 1202 630 1211 657 1211 c 1
 657 1210 709 1211 709 1211 c 2
 727 1211 730 1192 723 1176 c 0
 723 1176 670 1016 603 812 c 1
 746 812 l 2
 789 812 803 799 803 756 c 2
 803 713 l 2
 803 670 789 657 746 657 c 2
 551 657 l 1
 531 595 510 532 490 470 c 1
 736 470 l 2
 779 470 793 457 793 414 c 2
 793 371 l 2
 793 328 779 314 736 314 c 2
 438 314 l 1
 373 118 323 -34 323 -34 c 2
 312 -67 301 -69 281 -69 c 0
 278 -69 276 -69 273 -69 c 2
 221 -69 l 2
EndSplineSet
EndChar

StartChar: numbersign
Encoding: 3 35 249
Width: 1709
VWidth: 0
Flags: HW
LayerCount: 2
Fore
SplineSet
239 -205 m 2
 221 -205 209 -187 215 -170 c 1
 353 418 l 1
 201 418 l 2
 158 418 134 432 134 475 c 2
 134 530 l 2
 134 573 158 587 201 587 c 2
 392 587 l 1
 451 835 l 1
 276 835 l 2
 233 835 209 849 209 892 c 2
 209 949 l 2
 209 992 233 1006 276 1006 c 2
 490 1006 l 1
 632 1612 l 1
 640 1633 660 1647 682 1647 c 2
 784 1647 l 2
 802 1647 814 1629 808 1612 c 1
 666 1006 l 1
 1145 1006 l 1
 1287 1612 l 1
 1295 1633 1315 1647 1337 1647 c 2
 1439 1647 l 2
 1457 1647 1469 1629 1463 1612 c 1
 1321 1006 l 1
 1508 1006 l 2
 1551 1006 1575 992 1575 949 c 2
 1575 892 l 2
 1575 849 1551 835 1508 835 c 2
 1282 835 l 1
 1223 587 l 1
 1433 587 l 2
 1476 587 1500 573 1500 530 c 2
 1500 475 l 2
 1500 432 1476 418 1433 418 c 2
 1184 418 l 1
 1046 -170 l 1
 1038 -191 1018 -205 996 -205 c 2
 894 -205 l 2
 876 -205 864 -187 870 -170 c 1
 1008 418 l 1
 529 418 l 1
 391 -170 l 1
 383 -191 363 -205 341 -205 c 2
 239 -205 l 2
568 587 m 1
 1047 587 l 1
 1106 835 l 1
 627 835 l 1
 568 587 l 1
EndSplineSet
EndChar

StartChar: o
Encoding: 79 111 250
Width: 1639
VWidth: 0
Flags: HW
LayerCount: 2
Fore
SplineSet
821 108 m 0
 1076 108 1291 241 1291 504 c 0
 1291 791 1060 903 821 903 c 0
 578 903 347 789 348 504 c 1
 347 244 561 108 821 108 c 0
822 -41 m 0
 525 -41 128 109 128 504 c 0
 128 910 493 1052 822 1052 c 0
 1145 1052 1511 910 1511 504 c 0
 1511 110 1114 -41 822 -41 c 0
EndSplineSet
EndChar

StartChar: oe
Encoding: 273 339 255
Width: 2698
VWidth: 0
Flags: HW
LayerCount: 2
Fore
SplineSet
816 -41 m 0
 520 -41 131 109 131 504 c 0
 131 910 488 1052 816 1052 c 0
 1042 1052 1279 983 1401 803 c 1
 1521 984 1754 1052 1982 1052 c 0
 2413 1052 2562 802 2599 609 c 1
 2599 558 l 1
 2598 523 2584 450 2472 450 c 2
 1526 450 l 2
 1515 450 1509 448 1509 441 c 0
 1510 316 1584 107 2007 107 c 0
 2253 107 2395 170 2461 201 c 0
 2479 210 2493 213 2504 213 c 0
 2535 213 2538 180 2550 140 c 0
 2553 130 2556 120 2556 111 c 0
 2556 96 2548 83 2521 70 c 0
 2395 8 2177 -42 1995 -42 c 0
 1744 -42 1509 21 1393 208 c 1
 1263 31 1020 -41 816 -41 c 0
1521 589 m 2
 2424 589 l 1
 2423 591 l 1
 2398 738 2308 902 1981 902 c 0
 1767 902 1549 813 1513 596 c 0
 1513 592 1514 589 1521 589 c 2
815 108 m 0
 1071 108 1294 241 1294 504 c 0
 1294 791 1054 903 815 903 c 0
 572 903 349 789 350 504 c 1
 349 244 556 108 815 108 c 0
EndSplineSet
EndChar

StartChar: ogonek
Encoding: 366 731 256
Width: 716
VWidth: 0
Flags: HW
LayerCount: 2
Fore
SplineSet
413 -388 m 2
 255 -388 182 -286 182 -198 c 0
 182 -44 290 16 429 16 c 1
 432 -17 l 1
 366 -17 329 -77 329 -137 c 0
 329 -213 345 -290 460 -290 c 2
 479 -290 l 1
 479 -290 495 -289 495 -300 c 2
 495 -371 l 2
 495 -381 492 -388 479 -388 c 2
 413 -388 l 2
EndSplineSet
EndChar

StartChar: one
Encoding: 17 49 260
Width: 842
VWidth: 0
Flags: HW
LayerCount: 2
Fore
SplineSet
535 0 m 2
 492 0 468 24 468 67 c 2
 468 1219 l 2
 468 1239 451 1256 431 1256 c 1
 156 1225 l 1
 113 1225 89 1249 89 1292 c 2
 89 1322 l 2
 89 1365 113.243 1384.44 156 1389 c 2
 615 1438 l 1
 658 1438 682 1414 682 1371 c 2
 682 67 l 2
 682 24 658 0 615 0 c 2
 535 0 l 2
EndSplineSet
EndChar

StartChar: ordfeminine
Encoding: 104 170 261
Width: 1671
VWidth: 0
Flags: HW
LayerCount: 2
Fore
SplineSet
518 656 m 0
 784 656 1026 746 1026 986 c 0
 1026 998 1026 1001 1017 1001 c 0
 1014 1001 857 992 852 991 c 0
 336 957 204 899 207 785 c 1
 208 702 281 656 518 656 c 0
508 534 m 0
 169 534 11 622 11 778 c 0
 11 1148 1024 1091 1024 1120 c 2
 1024 1133 l 2
 1024 1267 956 1344 647 1344 c 0
 575 1344 307 1339 228 1258 c 0
 210 1239 181 1211 163 1211 c 0
 158 1211 155 1212 147 1213 c 2
 72 1227 l 2
 57 1229 44 1244 44 1259 c 0
 44 1274 48 1287 54 1297 c 0
 134 1418 298 1474 646 1474 c 0
 1084 1474 1212 1341 1212 1059 c 2
 1212 650 l 2
 1212 596 1198 569 1168 569 c 2
 1146 569 l 2
 1112 569 1100 606 1089 674 c 1
 1084 715 1081 755 1076 771 c 1
 1073 789 1072 804 1067 804 c 0
 1063 804 1058 782 1056 776 c 0
 994 641 822 534 508 534 c 0
EndSplineSet
EndChar

StartChar: ordmasculine
Encoding: 120 186 262
Width: 1628
VWidth: 0
Flags: HW
LayerCount: 2
Fore
SplineSet
597 672 m 0
 814 672 996 785 996 1008 c 0
 996 1253 800 1348 597 1348 c 0
 390 1348 194 1251 194 1008 c 0
 194 788 376 672 597 672 c 0
598 545 m 0
 345 545 8 672 8 1008 c 0
 8 1353 318 1474 598 1474 c 0
 872 1474 1183 1353 1183 1008 c 0
 1183 673 846 545 598 545 c 0
EndSplineSet
EndChar

StartChar: oslash
Encoding: 182 248 263
Width: 1640
VWidth: 0
Flags: HW
LayerCount: 2
Fore
SplineSet
566 -202 m 2
 489 -200 l 2
 474 -200 465 -182 472 -167 c 2
 542 2 l 1
 323 71 129 228 129 504 c 0
 129 910 494 1052 823 1052 c 0
 873 1052 923 1049 973 1042 c 1
 1024 1164 l 2
 1032 1184 1049 1197 1068 1197 c 2
 1145 1197 l 2
 1159 1197 1168 1179 1162 1164 c 2
 1101 1014 l 1
 1325 950 1512 794 1512 504 c 0
 1512 110 1115 -41 823 -41 c 0
 774 -41 722 -37 669 -29 c 1
 611 -169 l 2
 603 -189 584 -202 566 -202 c 2
602 146 m 1
 913 897 l 1
 884 901 852 903 822 903 c 0
 579 903 348 789 349 504 c 1
 348 324 451 202 602 146 c 1
822 108 m 0
 1077 108 1292 241 1292 504 c 0
 1292 700 1185 815 1039 867 c 1
 728 114 l 1
 758 110 789 108 822 108 c 0
EndSplineSet
EndChar

StartChar: p
Encoding: 80 112 265
Width: 1663
VWidth: 0
Flags: HW
LayerCount: 2
Fore
SplineSet
220 -430 m 2
 177 -430 153 -406 153 -363 c 2
 153 945 l 2
 153 988 162 1011 205 1011 c 2
 217 1011 l 2
 248 1011 271 990 294 917 c 0
 306 878 314 845 326 811 c 0
 328 805 330 800 335 800 c 0
 337 800 341 802 345 806 c 0
 462 968 679 1052 877 1052 c 0
 1169 1052 1534 905 1534 507 c 0
 1534 98 1181 -42 857 -42 c 0
 660 -42 490 22 382 152 c 0
 380 155 377 157 375 157 c 0
 373 157 372 155 372 150 c 2
 372 -363 l 2
 372 -406 348 -430 305 -430 c 2
 220 -430 l 2
845 107 m 0
 1084 107 1316 220 1316 507 c 0
 1316 772 1101 904 845 904 c 0
 585 904 371 768 372 507 c 1
 371 222 602 107 845 107 c 0
EndSplineSet
EndChar

StartChar: paragraph
Encoding: 116 182 266
Width: 1256
VWidth: 0
Flags: HW
LayerCount: 2
Fore
SplineSet
584 -1 m 2
 541 -1 528 33 528 76 c 2
 528 834 l 1
 508 834 l 2
 241 834 119 937 119 1137 c 0
 119 1329 239 1438 610 1438 c 0
 855 1438 967 1426 1031 1416 c 0
 1074 1409 1097 1381 1097 1338 c 2
 1097 76 l 2
 1097 33 1084 -1 1041 -1 c 2
 965 -1 l 2
 922 -1 908 33 908 76 c 2
 908 813 l 2
 908 825 899 834 889 834 c 2
 716 834 l 1
 716 76 l 2
 716 33 703 -1 660 -1 c 2
 584 -1 l 2
EndSplineSet
EndChar

StartChar: parenleft
Encoding: 8 40 267
Width: 839
VWidth: 0
Flags: HW
LayerCount: 2
Fore
SplineSet
649 -143 m 0
 274 -30 140 299 140 699 c 0
 140 1100 294 1438 649 1540 c 0
 653 1541 658 1542 662 1542 c 0
 696 1542 726 1504 726 1470 c 2
 726 1452 l 2
 726 1383 682 1388 620 1352 c 0
 476 1270 359 1096 359 699 c 0
 359 292 446 157 620 43 c 0
 677 6 726 12 726 -57 c 2
 726 -73 l 2
 726 -107 696 -145 662 -145 c 0
 658 -145 653 -144 649 -143 c 0
EndSplineSet
EndChar

StartChar: parenright
Encoding: 9 41 268
Width: 840
VWidth: 0
Flags: HW
LayerCount: 2
Fore
SplineSet
190 -143 m 0
 187 -144 183 -144 180 -144 c 0
 145 -144 113 -108 113 -73 c 2
 113 -55 l 2
 113 14 156 13 218 45 c 1
 351 111 479 229 479 698 c 0
 479 1167 350 1288 218 1354 c 0
 156 1385 113 1385 113 1454 c 2
 113 1470 l 2
 113 1505 145 1541 180 1541 c 0
 183 1541 187 1541 190 1540 c 0
 585 1458 698 1098 698 698 c 0
 698 297 585 -62 190 -143 c 0
EndSplineSet
EndChar

StartChar: percent
Encoding: 5 37 269
Width: 2644
VWidth: 0
Flags: HW
LayerCount: 2
Fore
SplineSet
952 -82 m 2
 923 -82 901 -59 901 -33 c 0
 901 -26 903 -19 906 -12 c 2
 1561 1466 l 2
 1579 1508 1623 1536 1669 1536 c 2
 1697 1536 l 2
 1726 1536 1748 1513 1748 1487 c 0
 1748 1480 1746 1473 1743 1466 c 2
 1089 -12 l 2
 1070 -54 1027 -82 981 -82 c 2
 952 -82 l 2
576 762 m 0
 753 762 846 876 846 1060 c 0
 846 1248 758 1358 576 1358 c 0
 403 1358 305 1248 305 1060 c 0
 305 876 409 762 576 762 c 0
576 623 m 0
 279 623 127 819 127 1057 c 0
 127 1293 275 1497 576 1497 c 0
 877 1497 1024 1293 1024 1057 c 0
 1024 819 873 623 576 623 c 0
2067 141 m 0
 2243 141 2337 255 2337 439 c 0
 2337 627 2249 737 2067 737 c 0
 1894 737 1796 627 1796 439 c 0
 1796 255 1899 141 2067 141 c 0
2067 2 m 0
 1770 2 1618 198 1618 436 c 0
 1618 672 1766 876 2067 876 c 0
 2368 876 2515 672 2515 436 c 0
 2515 198 2364 2 2067 2 c 0
EndSplineSet
EndChar

StartChar: period
Encoding: 14 46 270
Width: 543
VWidth: 0
Flags: HW
LayerCount: 2
Fore
SplineSet
204 0 m 2
 161 0 127 34 127 77 c 2
 127 220 l 2
 127 263 161 297 204 297 c 2
 339 297 l 2
 382 297 416 263 416 220 c 2
 416 77 l 2
 416 34 382 0 339 0 c 2
 204 0 l 2
EndSplineSet
EndChar

StartChar: periodcentered
Encoding: 117 183 271
Width: 543
VWidth: 0
Flags: HW
LayerCount: 2
Fore
SplineSet
204 0 m 2
 161 0 127 34 127 77 c 2
 127 220 l 2
 127 263 161 297 204 297 c 2
 339 297 l 2
 382 297 416 263 416 220 c 2
 416 77 l 2
 416 34 382 0 339 0 c 2
 204 0 l 2
EndSplineSet
EndChar

StartChar: perthousand
Encoding: 407 8240 272
Width: 3595
VWidth: 0
Flags: HW
LayerCount: 2
Fore
SplineSet
898 -82 m 2
 869 -82 847 -59 847 -33 c 0
 847 -26 849 -19 852 -12 c 2
 1507 1466 l 2
 1525 1508 1569 1536 1615 1536 c 2
 1643 1536 l 2
 1672 1536 1694 1513 1694 1487 c 0
 1694 1480 1692 1473 1689 1466 c 2
 1035 -12 l 2
 1016 -54 973 -82 927 -82 c 2
 898 -82 l 2
519 762 m 0
 696 762 790 876 790 1060 c 0
 790 1248 701 1358 519 1358 c 0
 346 1358 249 1248 249 1060 c 0
 249 876 352 762 519 762 c 0
519 623 m 0
 222 623 70 819 70 1057 c 0
 70 1293 218 1497 519 1497 c 0
 820 1497 967 1293 967 1057 c 0
 967 819 816 623 519 623 c 0
2016 141 m 0
 2192 141 2286 255 2286 439 c 0
 2286 627 2198 737 2016 737 c 0
 1843 737 1745 627 1745 439 c 0
 1745 255 1849 141 2016 141 c 0
2016 2 m 0
 1719 2 1567 198 1567 436 c 0
 1567 672 1715 876 2016 876 c 0
 2317 876 2464 672 2464 436 c 0
 2464 198 2313 2 2016 2 c 0
3077 141 m 0
 3253 141 3347 255 3347 439 c 0
 3347 627 3258 737 3077 737 c 0
 2904 737 2806 627 2806 439 c 0
 2806 255 2909 141 3077 141 c 0
3077 2 m 0
 2780 2 2628 198 2628 436 c 0
 2628 672 2776 876 3077 876 c 0
 3378 876 3524 672 3524 436 c 0
 3524 198 3374 2 3077 2 c 0
EndSplineSet
EndChar

StartChar: plus
Encoding: 11 43 273
Width: 1201
VWidth: 0
Flags: HW
LayerCount: 2
Fore
SplineSet
562 18 m 2
 519 18 505 42 505 85 c 2
 505 409 l 2
 505 429 499 446 479 446 c 2
 177 446 l 2
 134 446 121 460 121 503 c 2
 121 582 l 2
 121 625 134 638 177 638 c 2
 479 638 l 2
 499 638 505 654 505 674 c 2
 505 1010 l 2
 505 1053 519 1077 562 1077 c 2
 638 1077 l 2
 681 1077 694 1053 694 1010 c 2
 694 674 l 2
 694 654 701 638 721 638 c 2
 1022 638 l 2
 1065 638 1079 625 1079 582 c 2
 1079 503 l 2
 1079 460 1065 446 1022 446 c 2
 721 446 l 2
 701 446 694 429 694 409 c 2
 694 85 l 2
 694 42 681 18 638 18 c 2
 562 18 l 2
EndSplineSet
EndChar

StartChar: q
Encoding: 81 113 274
Width: 1663
VWidth: 0
Flags: HW
LayerCount: 2
Fore
SplineSet
1360 -430 m 2
 1317 -430 1293 -406 1293 -363 c 2
 1293 147 l 2
 1293 154 1291 156 1289 156 c 0
 1286 156 1282 151 1281 150 c 0
 1171 23 1003 -42 807 -42 c 0
 484 -42 130 98 130 507 c 0
 130 905 496 1052 788 1052 c 0
 986 1052 1204 968 1320 805 c 0
 1322 802 1324 800 1327 800 c 0
 1329 800 1332 802 1334 808 c 0
 1347 844 1363 887 1376 927 c 1
 1395 993 1419 1011 1447 1011 c 2
 1459 1011 l 2
 1502 1011 1511 988 1511 945 c 2
 1511 -363 l 2
 1511 -406 1488 -430 1445 -430 c 2
 1360 -430 l 2
819 107 m 0
 1063 107 1294 222 1293 507 c 1
 1294 768 1079 904 819 904 c 0
 564 904 349 772 349 507 c 0
 349 220 580 107 819 107 c 0
EndSplineSet
EndChar

StartChar: question
Encoding: 31 63 275
Width: 1742
VWidth: 0
Flags: HW
LayerCount: 2
Fore
SplineSet
733 453 m 1
 733 453 719 430 695 446 c 0
 675 460 646 477 630 489 c 0
 610 504 623 525 622 525 c 1
 724 715 836 779 1040 796 c 0
 1367 824 1434 896 1435 1048 c 1
 1435 1214 1274 1312 877 1312 c 0
 595 1312 403 1267 206 1205 c 0
 194 1201 183 1199 174 1199 c 0
 149 1199 135 1213 124 1241 c 2
 102 1292 l 2
 99 1299 98 1305 98 1311 c 0
 98 1335 118 1357 149 1368 c 0
 263 1409 549 1475 810 1475 c 0
 1291 1475 1613 1383 1613 1032 c 0
 1613 688 1176 681 990 657 c 0
 825 635 743 468 733 453 c 1
624 0 m 2
 581 0 567 14 567 57 c 2
 567 182 l 2
 567 225 581 238 624 238 c 2
 792 238 l 2
 835 238 849 225 849 182 c 2
 849 57 l 2
 849 14 835 0 792 0 c 2
 624 0 l 2
EndSplineSet
EndChar

StartChar: quotedbl
Encoding: 2 34 276
Width: 826
VWidth: 0
Flags: HW
LayerCount: 2
Fore
SplineSet
245 774 m 2
 202 774 205 798 199 841 c 2
 133 1348 l 2
 132 1352 132 1357 132 1361 c 0
 132 1400 160 1436 199 1436 c 2
 286 1436 l 2
 326 1436 354 1397 354 1357 c 0
 354 1354 353 1350 353 1347 c 2
 294 841 l 2
 289 798 291 774 248 774 c 2
 245 774 l 2
581 774 m 2
 538 774 541 798 535 841 c 2
 469 1348 l 2
 468 1352 468 1355 468 1359 c 0
 468 1398 497 1436 536 1436 c 2
 623 1436 l 2
 663 1436 690 1397 690 1357 c 0
 690 1354 689 1350 689 1347 c 2
 630 841 l 2
 625 798 627 774 584 774 c 2
 581 774 l 2
EndSplineSet
EndChar

StartChar: quotedblleft
Encoding: 400 8220 277
Width: 1130
VWidth: 0
Flags: HW
LayerCount: 2
Fore
SplineSet
226 914 m 2
 183 914 149 948 149 991 c 2
 149 1134 l 2
 149 1371 278 1507 416 1530 c 0
 421 1531 426 1531 431 1531 c 0
 460 1531 482 1516 482 1485 c 2
 482 1476 l 2
 482 1422 464 1428 421 1401 c 0
 352 1358 320 1281 320 1257 c 0
 320 1241 322 1230 337 1230 c 2
 422 1230 l 2
 460 1230 482 1219 482 1181 c 2
 482 978 l 2
 482 935 465 914 422 914 c 2
 226 914 l 2
698 914 m 2
 655 914 621 948 621 991 c 2
 621 1134 l 2
 621 1371 751 1507 889 1530 c 0
 894 1531 899 1531 904 1531 c 0
 932 1531 954 1516 954 1485 c 2
 954 1476 l 2
 954 1422 937 1428 894 1401 c 0
 825 1358 792 1281 792 1257 c 0
 792 1241 794 1230 809 1230 c 2
 894 1230 l 2
 932 1230 954 1219 954 1181 c 2
 954 978 l 2
 954 935 937 914 894 914 c 2
 698 914 l 2
EndSplineSet
EndChar

StartChar: quotedblright
Encoding: 401 8221 278
Width: 1082
VWidth: 0
Flags: HW
LayerCount: 2
Fore
SplineSet
216 920 m 0
 211 919 206 919 201 919 c 0
 172 919 150 934 150 965 c 2
 150 974 l 2
 150 1028 168 1022 211 1049 c 0
 280 1092 312 1169 312 1193 c 0
 312 1209 310 1220 295 1220 c 2
 210 1220 l 2
 172 1220 150 1232 150 1270 c 2
 150 1473 l 2
 150 1516 167 1537 210 1537 c 2
 406 1537 l 2
 449 1537 483 1503 483 1460 c 2
 483 1317 l 2
 483 1080 354 943 216 920 c 0
665 920 m 0
 660 919 655 919 650 919 c 0
 621 919 599 934 599 965 c 2
 599 974 l 2
 599 1028 617 1022 660 1049 c 0
 729 1092 761 1169 761 1193 c 0
 761 1209 759 1220 744 1220 c 2
 659 1220 l 2
 621 1220 599 1232 599 1270 c 2
 599 1473 l 2
 599 1516 616 1537 659 1537 c 2
 855 1537 l 2
 898 1537 933 1503 933 1460 c 2
 933 1317 l 2
 933 1080 803 943 665 920 c 0
EndSplineSet
EndChar

StartChar: quoteleft
Encoding: 397 8216 279
Width: 603
VWidth: 0
Flags: HW
LayerCount: 2
Fore
SplineSet
208 914 m 2
 165 914 131 948 131 991 c 2
 131 1134 l 2
 131 1371 261 1507 399 1530 c 0
 404 1531 409 1531 414 1531 c 0
 442 1531 464 1516 464 1485 c 2
 464 1476 l 2
 464 1422 447 1428 404 1401 c 0
 335 1358 302 1281 302 1257 c 0
 302 1241 304 1230 319 1230 c 2
 404 1230 l 2
 442 1230 464 1219 464 1181 c 2
 464 978 l 2
 464 935 447 914 404 914 c 2
 208 914 l 2
EndSplineSet
EndChar

StartChar: quoteright
Encoding: 398 8217 280
Width: 586
VWidth: 0
Flags: HW
LayerCount: 2
Fore
SplineSet
203 920 m 0
 198 919 193 919 188 919 c 0
 159 919 137 934 137 965 c 2
 137 974 l 2
 137 1028 155 1022 198 1049 c 0
 267 1092 299 1169 299 1193 c 0
 299 1209 297 1220 282 1220 c 2
 197 1220 l 2
 159 1220 137 1232 137 1270 c 2
 137 1473 l 2
 137 1516 154 1537 197 1537 c 2
 393 1537 l 2
 436 1537 470 1503 470 1460 c 2
 470 1317 l 2
 470 1080 341 943 203 920 c 0
EndSplineSet
EndChar

StartChar: r
Encoding: 82 114 281
Width: 1011
VWidth: 0
Flags: HW
LayerCount: 2
Fore
SplineSet
219 0 m 2
 176 0 152 24 152 67 c 2
 152 929 l 2
 152 972 166 1006 209 1006 c 2
 225 1006 l 2
 272 1006 294 992 305 942 c 2
 331 833 l 2
 333 824 338 811 346 811 c 0
 354 811 361 827 366 834 c 0
 438 935 600 1052 788 1052 c 2
 835 1052 l 2
 876 1052 900 1028 900 985 c 2
 900 930 l 2
 900 886 875 867 832 867 c 2
 749 867 l 2
 553 867 371 744 371 610 c 2
 371 67 l 2
 371 24 348 0 305 0 c 2
 219 0 l 2
EndSplineSet
EndChar

StartChar: registered
Encoding: 108 174 285
Width: 1899
VWidth: 0
Flags: HW
LayerCount: 2
Fore
SplineSet
599 387 m 2
 581 387 567 403 567 422 c 2
 567 1014 l 2
 567 1034 581 1049 599 1049 c 2
 991 1049 l 2
 1202 1049 1368 1047 1368 853 c 0
 1368 755 1305 705 1230 692 c 0
 1229 692 1229 691 1229 690 c 0
 1229 689 1229 688 1230 688 c 0
 1316 668 1345 589 1356 472 c 0
 1359 444 1364 419 1364 409 c 0
 1364 397 1359 387 1347 387 c 2
 1245 387 l 2
 1219 387 1209 394 1204 418 c 0
 1191 471 1181 570 1148 616 c 1
 1127 649 1111 649 1054 649 c 2
 752 649 l 2
 744 649 736 641 736 631 c 2
 736 422 l 2
 736 403 722 387 704 387 c 2
 599 387 l 2
752 753 m 2
 1120 753 l 2
 1187 753 1208 792 1208 844 c 0
 1208 932 1147 936 1043 936 c 2
 752 936 l 2
 744 936 736 928 736 919 c 2
 736 770 l 2
 736 761 744 753 752 753 c 2
952 80 m 0
 1433 80 1613 419 1613 713 c 0
 1613 1019 1433 1350 952 1350 c 0
 470 1350 290 1019 290 713 c 0
 290 419 470 80 952 80 c 0
949 -41 m 0
 405 -41 133 318 133 717 c 0
 133 1116 405 1475 949 1475 c 0
 1493 1475 1765 1116 1765 717 c 0
 1765 318 1493 -41 949 -41 c 0
EndSplineSet
EndChar

StartChar: ring
Encoding: 365 730 286
Width: 1717
VWidth: 0
Flags: HW
LayerCount: 2
Fore
SplineSet
828 1490 m 0
 906 1490 973 1535 973 1627 c 0
 973 1725 901 1763 828 1763 c 0
 751 1763 679 1725 681 1627 c 1
 679 1536 746 1490 828 1490 c 0
827 1405 m 0
 718 1405 573 1464 573 1627 c 0
 573 1793 707 1850 827 1850 c 0
 946 1850 1080 1793 1080 1627 c 0
 1080 1465 935 1405 827 1405 c 0
EndSplineSet
EndChar

StartChar: s
Encoding: 83 115 287
Width: 1550
VWidth: 0
Flags: HW
LayerCount: 2
Fore
SplineSet
794 -41 m 0
 604 -41 377 -18 190 59 c 0
 166 69 149 97 149 125 c 0
 149 134 150 142 154 150 c 0
 171 186 194 211 228 211 c 0
 237 211 246 210 256 206 c 0
 430 139 581 113 810 113 c 0
 1151 113 1233 180 1233 296 c 0
 1233 393 1193 434 761 450 c 0
 392 464 147 507 147 735 c 0
 147 1034 533 1053 764 1053 c 0
 989 1053 1132 1023 1275 970 c 0
 1301 960 1316 938 1316 914 c 0
 1316 906 1315 899 1311 891 c 2
 1299 865 l 2
 1288 842 1265 833 1238 833 c 0
 1225 833 1210 835 1197 839 c 0
 1097 870 1008 899 816 899 c 0
 496 899 346 860 346 755 c 0
 346 657 367 647 801 618 c 0
 1196 591 1416 568 1416 307 c 0
 1416 97 1294 -41 794 -41 c 0
EndSplineSet
EndChar

StartChar: section
Encoding: 101 167 293
Width: 1574
VWidth: 0
Flags: HW
LayerCount: 2
Fore
SplineSet
1195 574 m 1
 1195 574 1239 693 1239 719 c 0
 1239 816 1203 857 771 873 c 0
 630 878 507 888 408 910 c 1
 370 857 357 792 357 755 c 0
 357 675 380 648 810 619 c 0
 966 608 1096 599 1195 574 c 1
159 122 m 0
 159 171 198 212 237 212 c 0
 246 212 255 211 265 207 c 0
 439 140 590 114 820 114 c 0
 1160 114 1243 181 1243 297 c 0
 1243 394 1203 435 771 451 c 0
 402 465 156 508 156 736 c 0
 156 821 210 899 283 954 c 1
 202 996 156 1060 156 1158 c 0
 156 1457 542 1476 774 1476 c 0
 998 1476 1141 1446 1284 1393 c 0
 1310 1383 1325 1361 1325 1337 c 0
 1325 1329 1324 1322 1320 1314 c 2
 1308 1288 l 2
 1297 1265 1274 1256 1247 1256 c 0
 1234 1256 1219 1258 1206 1262 c 0
 1106 1293 1018 1322 825 1322 c 0
 505 1322 356 1283 356 1178 c 0
 356 1080 377 1070 810 1041 c 0
 1206 1014 1426 991 1426 730 c 0
 1426 650 1378 574 1330 518 c 1
 1393 474 1426 409 1426 308 c 0
 1426 98 1303 -40 803 -40 c 0
 613 -40 387 -17 200 60 c 0
 172 71 159 96 159 122 c 0
EndSplineSet
EndChar

StartChar: semicolon
Encoding: 27 59 294
Width: 624
VWidth: 0
Flags: HW
LayerCount: 2
Fore
SplineSet
212 -300 m 0
 207 -301 202 -301 197 -301 c 0
 168 -301 146 -286 146 -255 c 2
 146 -246 l 2
 146 -192 164 -198 207 -171 c 0
 276 -128 308 -51 308 -27 c 0
 308 -11 306 0 291 0 c 2
 206 0 l 2
 168 0 146 12 146 50 c 2
 146 253 l 2
 146 296 163 316 206 316 c 2
 402 316 l 2
 445 316 479 282 479 239 c 2
 479 97 l 2
 479 -140 350 -277 212 -300 c 0
246 756 m 2
 203 756 169 790 169 833 c 2
 169 976 l 2
 169 1019 203 1053 246 1053 c 2
 381 1053 l 2
 424 1053 458 1019 458 976 c 2
 458 833 l 2
 458 790 424 756 381 756 c 2
 246 756 l 2
EndSplineSet
EndChar

StartChar: seven
Encoding: 23 55 295
Width: 1055
VWidth: 0
Flags: HW
LayerCount: 2
Fore
SplineSet
391 0 m 2
 354 0 321 19 321 51 c 0
 321 56 322 61 324 67 c 2
 684 1241 l 2
 690 1260 677 1274 657 1274 c 2
 153 1274 l 2
 110 1274 86 1298 86 1341 c 2
 86 1371 l 2
 86 1414 110 1438 153 1438 c 2
 882 1438 l 2
 925 1438 949 1414 949 1371 c 1
 539 67 l 2
 526 26 516 0 473 0 c 2
 391 0 l 2
EndSplineSet
EndChar

StartChar: six
Encoding: 22 54 296
Width: 1860
VWidth: 0
Flags: HW
LayerCount: 2
Fore
SplineSet
912 -42 m 0
 259 -42 140 295 140 738 c 0
 140 1297 420 1472 983 1472 c 0
 1163 1472 1425 1426 1545 1377 c 0
 1562 1370 1573 1358 1573 1340 c 0
 1573 1335 1573 1330 1571 1325 c 2
 1540 1233 l 2
 1534 1215 1519 1207 1505 1207 c 0
 1499 1207 1494 1208 1489 1210 c 0
 1402 1250 1130 1299 960 1299 c 0
 527 1299 364 1137.99 364 870 c 2
 364 846 l 1
 600 880 797 895 960 895 c 0
 1568 895 1728 682 1728 425 c 0
 1728 61 1370 -42 912 -42 c 0
912 131 m 0
 1307 131 1512 187 1512 433 c 0
 1512 606 1409 737 954 737 c 0
 800 737 603 722 355 687 c 1
 355 616 l 2
 355 309.024 520 131 912 131 c 0
EndSplineSet
EndChar

StartChar: sterling
Encoding: 97 163 298
Width: 1713
VWidth: 0
Flags: HW
LayerCount: 2
Fore
SplineSet
203 0 m 2
 160 0 146 18 146 61 c 2
 146 91 l 2
 146 134 160 158 203 158 c 2
 338 158 l 2
 367 158 370 168 370 211 c 2
 370 650 l 2
 370 677 363 693 338 693 c 2
 203 693 l 2
 160 693 146 710 146 753 c 2
 146 782 l 2
 146 825 160 843 203 843 c 2
 370 843 l 1
 369 1219 530 1475 991 1475 c 0
 1230 1475 1417 1426 1530 1393 c 0
 1567 1383 1583 1366 1583 1336 c 0
 1583 1332 1583 1328 1582 1323 c 2
 1565 1271 l 1
 1554 1241 1547 1227 1521 1227 c 0
 1514 1227 1507 1228 1498 1230 c 0
 1459 1237 1182 1311 1000 1311 c 0
 691 1311 586 1186 586 906 c 2
 586 843 l 1
 1004 843 l 2
 1047 843 1060 825 1060 782 c 2
 1060 753 l 2
 1060 710 1047 693 1004 693 c 2
 584 693 l 1
 584 227 l 2
 584 167 587 158 658 158 c 2
 1517 158 l 2
 1549 158 1573 147 1573 105 c 2
 1573 40 l 2
 1573 5 1549 0 1517 0 c 2
 203 0 l 2
EndSplineSet
EndChar

StartChar: t
Encoding: 84 116 299
Width: 1171
VWidth: 0
Flags: HW
LayerCount: 2
Fore
SplineSet
707 -41 m 0
 425 -41 305 109 305 331 c 2
 305 823 l 2
 305 843 298 850 278 850 c 2
 148 850 l 2
 105 850 81 873 81 916 c 2
 81 939 l 2
 81 982 105 1006 148 1006 c 2
 278 1006 l 2
 298 1006 305 1013 305 1033 c 1
 324 1408 l 1
 333 1450 348 1475 391 1475 c 2
 456 1475 l 2
 499 1475 522 1451 522 1408 c 2
 522 1033 l 2
 522 1013 529 1006 549 1006 c 2
 932 1006 l 2
 975 1006 998 982 998 939 c 2
 998 916 l 2
 998 873 975 850 932 850 c 2
 549 850 l 2
 529 850 522 843 522 823 c 2
 522 301 l 2
 522 163 596 107 748 107 c 0
 816 107 890 124 951 144 c 0
 965 149 977 151 986 151 c 0
 1012 151 1018 132 1025 106 c 2
 1034 78 l 2
 1036 70 1037 63 1037 57 c 0
 1037 30 1017 18 984 5 c 0
 905 -26 816 -41 707 -41 c 0
EndSplineSet
EndChar

StartChar: thorn
Encoding: 188 254 302
Width: 1671
VWidth: 0
Flags: HW
LayerCount: 2
Fore
SplineSet
228 -430 m 2
 185 -430 161 -406 161 -363 c 2
 161 1371 l 2
 161 1414 170 1438 213 1438 c 2
 309 1438 l 2
 339 1438 356 1429 356 1360 c 0
 356 1341 358 1009 358 880 c 0
 358 861 360 835 370 835 c 0
 372 835 375 836 379 841 c 0
 501 980 701 1052 885 1052 c 0
 1177 1052 1542 905 1542 507 c 0
 1542 98 1189 -42 865 -42 c 0
 668 -42 498 28 390 158 c 0
 388 161 385 163 383 163 c 0
 381 163 380 162 380 156 c 2
 380 -363 l 2
 380 -406 356 -430 313 -430 c 2
 228 -430 l 2
853 107 m 0
 1092 107 1324 220 1324 507 c 0
 1324 772 1109 904 853 904 c 0
 594 904 380 769 380 509 c 0
 380 239 608 107 853 107 c 0
EndSplineSet
EndChar

StartChar: three
Encoding: 19 51 303
Width: 1952
VWidth: 0
Flags: HW
LayerCount: 2
Fore
SplineSet
1003 -40 m 0
 807 -40 303 29 191 62 c 0
 154 72 138 89 138 119 c 0
 138 123 138 127 139 132 c 2
 143 187 l 1
 147 218 161 231 187 231 c 0
 194 231 201 230 210 228 c 0
 249 221 679 131 1013 131 c 0
 1512.84 131 1595 268.291 1595 396 c 0
 1595 523 1489 643 1115 643 c 2
 879 643 l 2
 847 643 847 672 847 686 c 2
 847 768 l 2
 847 782 847 811 879 811 c 2
 1115 811 l 2
 1491 811 1573 933 1573 1056 c 0
 1573 1242.6 1407.62 1303 1042 1303 c 0
 671 1303 263 1211 224 1204 c 0
 215 1202 207 1201 200 1201 c 0
 174 1201 153 1214 149 1245 c 1
 139 1298 l 2
 138 1303 138 1307 138 1311 c 0
 138 1341 154 1358 191 1368 c 0
 303 1401 795 1474 1036 1474 c 0
 1641 1474 1785 1287 1785 1048 c 0
 1785 870 1674 743 1474 723 c 1
 1683 697 1809 564 1809 386 c 0
 1809 137 1608 -40 1003 -40 c 0
EndSplineSet
EndChar

StartChar: tilde
Encoding: 367 732 304
Width: 1644
VWidth: 0
Flags: HW
LayerCount: 2
Fore
SplineSet
645 1596 m 0
 585 1596 517 1611 428 1666 c 0
 407 1678 394 1695 394 1713 c 0
 394 1718 395 1723 397 1729 c 2
 423 1786 l 2
 432 1808 443 1819 459 1819 c 0
 467 1819 476 1816 486 1811 c 0
 555 1775 606 1763 650 1763 c 0
 784 1763 903 1846 1040 1846 c 0
 1106 1846 1178 1834 1258 1793 c 0
 1280 1782 1294 1771 1294 1750 c 0
 1294 1733 1275 1698 1270 1687 c 0
 1263 1672 1254 1639 1230 1639 c 0
 1224 1639 1215 1639 1206 1644 c 0
 1155 1674 1099 1683 1041 1683 c 0
 912 1683 772 1596 645 1596 c 0
EndSplineSet
EndChar

StartChar: trademark
Encoding: 412 8482 305
Width: 2567
VWidth: 0
Flags: HW
LayerCount: 2
Fore
SplineSet
1207 739 m 2
 1180 739 1166 754 1168 781 c 2
 1241 1598 l 2
 1243 1623 1257 1638 1281 1639 c 1
 1329 1639 l 1
 1354 1638 1375 1624 1390 1597 c 2
 1816 857 l 1
 1828 857 l 1
 2267 1597 l 2
 2282 1624 2304 1638 2330 1639 c 1
 2378 1639 l 1
 2402 1638 2416 1623 2418 1598 c 2
 2487 781 l 1
 2488 754 2475 739 2448 739 c 2
 2403 739 l 2
 2376 739 2360 754 2357 781 c 2
 2302 1424 l 1
 2302 1424 2294 1424 2294 1425 c 2
 1914 781 l 1
 1900 755 1877 740 1851 739 c 1
 1789 739 l 1
 1764 740 1742 755 1728 781 c 2
 1363 1415 l 1
 1357 1413 l 1
 1297 781 l 2
 1295 754 1279 739 1252 739 c 2
 1207 739 l 2
532 739 m 2
 505 739 490 754 490 781 c 2
 490 1531 l 2
 490 1544 486 1546 474 1546 c 2
 121 1546 l 2
 94 1546 79 1568 79 1595 c 1
 80 1620 95 1639 121 1639 c 2
 985 1639 l 2
 1012 1639 1027 1618 1027 1591 c 1
 1026 1566 1011 1546 985 1546 c 2
 633 1546 l 2
 621 1546 617 1544 617 1531 c 2
 617 781 l 2
 617 754 602 739 575 739 c 2
 532 739 l 2
EndSplineSet
EndChar

StartChar: two
Encoding: 18 50 306
Width: 1986
VWidth: 0
Flags: HW
LayerCount: 2
Fore
SplineSet
223 0 m 2
 164 0 130 34 130 90 c 0
 130 971.3 1625 537.065 1625 970 c 0
 1625 1200 1483 1305 937 1305 c 0
 646 1305 345 1200 322 1192 c 0
 304 1186 292 1182 279 1182 c 0
 247 1182 229 1191 224 1212 c 1
 192 1279 193 1279 193 1283 c 0
 193 1320 203 1340 228 1352 c 1
 336 1391 697 1477 932 1478 c 1
 1476 1478 1846 1357 1846 991 c 0
 1846 299.3 398 737.3 398 218 c 0
 398 184 433 163 470 163 c 2
 1761 163 l 2
 1787 163 1805 145 1805 99 c 2
 1805 51 l 2
 1805 10 1791 0 1753 0 c 2
 223 0 l 2
EndSplineSet
EndChar

StartChar: u
Encoding: 85 117 307
Width: 1530
VWidth: 0
Flags: HW
LayerCount: 2
Fore
SplineSet
659 -47 m 0
 349 -47 145 118 145 453 c 2
 145 939 l 2
 145 982 169 1006 212 1006 c 2
 296 1006 l 2
 339 1006 363 982 363 939 c 2
 363 397 l 2
 363 170 513 107 699 107 c 0
 896 107 1160 264 1160 397 c 2
 1160 939 l 2
 1160 982 1183 1006 1226 1006 c 2
 1312 1006 l 2
 1355 1006 1379 982 1379 939 c 2
 1379 77 l 2
 1379 34 1365 0 1322 0 c 2
 1305 0 l 2
 1258 0 1236 14 1226 64 c 2
 1200 182 l 1
 1195 190 1193 195 1185 195 c 0
 1177 195 1171 186 1165 179 c 0
 1035 18 848 -47 659 -47 c 0
EndSplineSet
EndChar

StartChar: underscore
Encoding: 63 95 315
Width: 1171
VWidth: 0
Flags: HW
LayerCount: 2
Fore
SplineSet
168 -145 m 2
 125 -145 104 -132 104 -89 c 2
 104 -56 l 2
 104 -13 125 0 168 0 c 2
 1000 0 l 2
 1043 0 1064 -13 1064 -56 c 2
 1064 -89 l 2
 1064 -132 1043 -145 1000 -145 c 2
 168 -145 l 2
EndSplineSet
EndChar

StartChar: uni00AD
Encoding: 107 173 316
Width: 1024
VWidth: 0
Flags: HW
LayerCount: 2
Fore
SplineSet
127 449 m 1
 93.8799 449 67 486.408 67 532.5 c 2
 67 640.5 l 2
 67 678.312 93.8799 709 127 709 c 1
 896 709 l 1
 923.6 709 946 676.968 946 637.5 c 2
 946 525.5 l 2
 946 483.272 923.6 449 896 449 c 1
 127 449 l 1
EndSplineSet
EndChar

StartChar: uni0307
Encoding: 369 775 357
Width: 546
VWidth: 0
Flags: HW
LayerCount: 2
Fore
SplineSet
220 1397 m 2
 177 1397 143 1431 143 1474 c 2
 143 1617 l 2
 143 1660 177 1694 220 1694 c 2
 355 1694 l 2
 398 1694 432 1660 432 1617 c 2
 432 1474 l 2
 432 1431 398 1397 355 1397 c 2
 220 1397 l 2
EndSplineSet
EndChar

StartChar: uni030F
Encoding: 370 783 358
Width: 1781
VWidth: 0
Flags: HW
LayerCount: 2
Fore
SplineSet
684 1301 m 2
 646 1301 643 1316 628 1340 c 2
 427 1667 l 2
 420 1679 415 1693 415 1704 c 0
 415 1720 423 1732 443 1732 c 2
 606 1732 l 2
 650 1732 670 1720 678 1677 c 2
 740 1368 l 2
 743 1354 744 1342 744 1333 c 0
 744 1306 731 1301 702 1301 c 2
 684 1301 l 2
1044 1301 m 2
 1006 1301 1003 1316 988 1340 c 2
 787 1667 l 2
 780 1679 775 1693 775 1704 c 0
 775 1720 783 1732 803 1732 c 2
 966 1732 l 2
 1010 1732 1028 1720 1036 1677 c 2
 1100 1368 l 2
 1103 1354 1104 1342 1104 1333 c 0
 1104 1306 1091 1301 1062 1301 c 2
 1044 1301 l 2
EndSplineSet
EndChar

StartChar: uni0311
Encoding: 371 785 359
Width: 1176
VWidth: 0
Flags: HW
LayerCount: 2
Fore
SplineSet
323 1184 m 1
 323 1423 476 1497 641 1497 c 0
 807 1497 959 1423 959 1184 c 1
 769 1184 l 1
 769 1294 722 1352 641 1352 c 0
 561 1352 513 1301 513 1184 c 1
 323 1184 l 1
EndSplineSet
EndChar

StartChar: uni0326
Encoding: 372 806 360
Width: 1745
VWidth: 0
Flags: HW
LayerCount: 2
Fore
SplineSet
683 -583 m 2
 654 -583 641 -578 641 -551 c 0
 641 -542 642 -530 645 -516 c 2
 708 -206 l 2
 716 -163 735 -151 779 -151 c 2
 942 -151 l 2
 962 -151 970 -163 970 -179 c 0
 970 -190 965 -204 958 -216 c 2
 756 -544 l 2
 741 -568 738 -583 700 -583 c 2
 683 -583 l 2
EndSplineSet
EndChar

StartChar: uniFB00
Encoding: 419 64256 375
Width: 2051
VWidth: 0
Flags: HW
LayerCount: 2
Fore
SplineSet
438 0 m 2
 395 0 361 34 361 77 c 2
 361 823 l 2
 361 843 361 860 341 860 c 2
 189 860 l 2
 146 860 122 869 122 912 c 2
 122 945 l 2
 122 988 146 1006 189 1006 c 2
 339 1006 l 2
 361 1006 362 1019 362 1041 c 0
 361 1381 574 1475 786 1475 c 0
 900 1475 1021 1441 1037 1438 c 0
 1065 1431 1087 1416 1087 1388 c 2
 1087 1337 l 2
 1087 1300 1080 1293 1046 1293 c 0
 1041 1293 905 1327 839 1327 c 0
 616 1327 579 1200 579 1060 c 2
 579 1017 l 2
 579 1014 581 1006 591 1006 c 2
 1172 1006 l 2
 1194 1006 1195 1019 1195 1041 c 0
 1194 1381 1407 1475 1619 1475 c 0
 1732 1475 1854 1441 1869 1438 c 0
 1897 1431 1919 1416 1919 1388 c 2
 1919 1337 l 2
 1919 1300 1912 1293 1878 1293 c 0
 1873 1293 1737 1327 1671 1327 c 0
 1449 1327 1411 1200 1411 1060 c 2
 1411 1017 l 2
 1411 1014 1413 1006 1424 1006 c 2
 1828 1006 l 2
 1871 1006 1895 994 1895 951 c 2
 1895 912 l 2
 1895 869 1871 860 1828 860 c 2
 1434 860 l 2
 1414 860 1411 843 1411 823 c 2
 1411 77 l 2
 1411 34 1377 0 1334 0 c 2
 1271 0 l 2
 1228 0 1194 34 1194 77 c 2
 1194 823 l 2
 1194 843 1194 860 1174 860 c 2
 602 860 l 2
 582 860 579 843 579 823 c 2
 579 77 l 2
 579 34 545 0 502 0 c 2
 438 0 l 2
EndSplineSet
Ligature2: "'liga' Standard Ligatures lookup 0-1" f f
EndChar

StartChar: uniFB01
Encoding: 420 64257 376
Width: 1724
VWidth: 0
Flags: HW
LayerCount: 2
Fore
SplineSet
438 0 m 2
 395 0 361 34 361 77 c 2
 361 823 l 2
 361 843 361 860 341 860 c 2
 189 860 l 2
 146 860 122 869 122 912 c 2
 122 945 l 2
 122 988 146 1006 189 1006 c 2
 339 1006 l 2
 361 1006 362 1019 362 1041 c 0
 361 1381 574 1475 786 1475 c 0
 900 1475 1021 1441 1037 1438 c 0
 1065 1431 1087 1416 1087 1388 c 2
 1087 1337 l 2
 1087 1300 1080 1293 1046 1293 c 0
 1041 1293 905 1327 839 1327 c 0
 616 1327 579 1200 579 1060 c 2
 579 1017 l 2
 579 1014 581 1006 591 1006 c 2
 1498 1006 l 2
 1541 1006 1565 982 1565 939 c 2
 1565 67 l 2
 1565 24 1541 0 1498 0 c 2
 1413 0 l 2
 1370 0 1347 24 1347 67 c 2
 1347 860 l 1
 602 860 l 2
 582 860 579 843 579 823 c 2
 579 77 l 2
 579 34 545 0 502 0 c 2
 438 0 l 2
1413 1180 m 2
 1370 1180 1347 1203 1347 1246 c 2
 1347 1341 l 2
 1347 1384 1370 1408 1413 1408 c 2
 1498 1408 l 2
 1541 1408 1565 1384 1565 1341 c 2
 1565 1246 l 2
 1565 1203 1541 1180 1498 1180 c 2
 1413 1180 l 2
EndSplineSet
Ligature2: "'liga' Standard Ligatures lookup 0-1" f i
EndChar

StartChar: uniFB02
Encoding: 421 64258 377
Width: 1696
VWidth: 0
Flags: HW
LayerCount: 2
Fore
SplineSet
438 0 m 2
 395 0 361 34 361 77 c 2
 361 823 l 2
 361 843 361 860 341 860 c 2
 189 860 l 2
 146 860 122 869 122 912 c 2
 122 945 l 2
 122 988 146 1006 189 1006 c 2
 339 1006 l 2
 361 1006 362 1019 362 1041 c 0
 361 1381 652 1475 941 1475 c 0
 1234 1475 1358 1441 1469 1419 c 1
 1512 1414 1536 1395 1536 1352 c 2
 1536 67 l 2
 1536 24 1512 0 1469 0 c 2
 1384 0 l 2
 1341 0 1318 24 1318 67 c 2
 1318 1301 l 1
 1228 1311 1080 1327 993 1327 c 0
 639 1327 579 1200 579 1060 c 2
 579 1017 l 2
 579 1014 581 1006 591 1006 c 2
 996 1006 l 2
 1039 1006 1063 994 1063 951 c 2
 1063 912 l 2
 1063 869 1039 860 996 860 c 2
 602 860 l 2
 582 860 579 843 579 823 c 2
 579 77 l 2
 579 34 545 0 502 0 c 2
 438 0 l 2
EndSplineSet
Ligature2: "'liga' Standard Ligatures lookup 0-1" f l
EndChar

StartChar: uniFB03
Encoding: 422 64259 378
Width: 2380
VWidth: 0
Flags: HW
LayerCount: 2
Fore
SplineSet
438 0 m 2
 395 0 361 34 361 77 c 2
 361 823 l 2
 361 843 361 860 341 860 c 2
 189 860 l 2
 146 860 122 869 122 912 c 2
 122 945 l 2
 122 988 146 1006 189 1006 c 2
 339 1006 l 2
 361 1006 362 1019 362 1041 c 0
 361 1381 564 1475 765 1475 c 0
 869 1475 981 1441 995 1438 c 0
 1023 1431 1045 1416 1045 1388 c 2
 1045 1337 l 2
 1045 1300 1038 1293 1004 1293 c 0
 999 1293 877 1327 818 1327 c 0
 613 1327 579 1200 579 1060 c 2
 579 1017 l 2
 579 1014 581 1006 591 1006 c 2
 1160 1006 l 2
 1182 1006 1183 1019 1183 1041 c 0
 1182 1381 1380 1475 1576 1475 c 0
 1678 1475 1788 1441 1802 1438 c 0
 1830 1431 1852 1416 1852 1388 c 2
 1852 1337 l 2
 1852 1300 1845 1293 1811 1293 c 0
 1806 1293 1686 1327 1628 1327 c 0
 1432 1327 1400 1200 1400 1060 c 2
 1400 1017 l 2
 1400 1014 1402 1006 1412 1006 c 2
 2154 1006 l 2
 2197 1006 2221 982 2221 939 c 2
 2221 67 l 2
 2221 24 2197 0 2154 0 c 2
 2069 0 l 2
 2026 0 2002 24 2002 67 c 2
 2002 860 l 1
 1423 860 l 2
 1403 860 1400 843 1400 823 c 2
 1400 77 l 2
 1400 34 1366 0 1323 0 c 2
 1259 0 l 2
 1216 0 1182 34 1182 77 c 2
 1182 823 l 2
 1182 843 1182 860 1162 860 c 2
 602 860 l 2
 582 860 579 843 579 823 c 2
 579 77 l 2
 579 34 545 0 502 0 c 2
 438 0 l 2
2069 1180 m 2
 2026 1180 2002 1203 2002 1246 c 2
 2002 1341 l 2
 2002 1384 2026 1408 2069 1408 c 2
 2154 1408 l 2
 2197 1408 2221 1384 2221 1341 c 2
 2221 1246 l 2
 2221 1203 2197 1180 2154 1180 c 2
 2069 1180 l 2
EndSplineSet
Ligature2: "'liga' Standard Ligatures lookup 0-1" f f i
EndChar

StartChar: uniFB04
Encoding: 423 64260 379
Width: 2502
VWidth: 0
Flags: HW
LayerCount: 2
Fore
SplineSet
438 0 m 2
 395 0 361 34 361 77 c 2
 361 823 l 2
 361 843 361 860 341 860 c 2
 189 860 l 2
 146 860 122 869 122 912 c 2
 122 945 l 2
 122 988 146 1006 189 1006 c 2
 339 1006 l 2
 361 1006 362 1019 362 1041 c 0
 361 1381 574 1475 786 1475 c 0
 900 1475 1021 1441 1037 1438 c 0
 1065 1431 1087 1416 1087 1388 c 2
 1087 1337 l 2
 1087 1300 1080 1293 1046 1293 c 0
 1041 1293 905 1327 839 1327 c 0
 616 1327 579 1200 579 1060 c 2
 579 1017 l 2
 579 1014 581 1006 591 1006 c 2
 1187 1006 l 2
 1209 1006 1210 1019 1210 1041 c 0
 1209 1381 1489 1475 1767 1475 c 0
 2049 1475 2168 1441 2275 1419 c 1
 2318 1414 2342 1395 2342 1352 c 2
 2342 67 l 2
 2342 24 2318 0 2275 0 c 2
 2190 0 l 2
 2147 0 2123 24 2123 67 c 2
 2123 1301 l 1
 2040 1311 1901 1327 1820 1327 c 0
 1484 1327 1426 1200 1426 1060 c 2
 1426 1017 l 2
 1426 1014 1428 1006 1439 1006 c 2
 1822 1006 l 2
 1865 1006 1889 994 1889 951 c 2
 1889 912 l 2
 1889 869 1865 860 1822 860 c 2
 1449 860 l 2
 1429 860 1426 843 1426 823 c 2
 1426 77 l 2
 1426 34 1392 0 1349 0 c 2
 1286 0 l 2
 1243 0 1209 34 1209 77 c 2
 1209 823 l 2
 1209 843 1209 860 1189 860 c 2
 602 860 l 2
 582 860 579 843 579 823 c 2
 579 77 l 2
 579 34 545 0 502 0 c 2
 438 0 l 2
EndSplineSet
Ligature2: "'liga' Standard Ligatures lookup 0-1" f f l
EndChar

StartChar: v
Encoding: 86 118 383
Width: 1523
VWidth: 0
Flags: HW
LayerCount: 2
Fore
SplineSet
723 1 m 2
 684 1 651 27 628 67 c 2
 109 939 l 2
 101 954 97 967 97 977 c 0
 97 996 111 1006 139 1006 c 2
 253 1006 l 2
 296 1006 312 982 337 939 c 2
 765 169 l 2
 768 163 773 160 778 160 c 0
 782 160 787 163 790 169 c 2
 1179 939 l 2
 1202 985 1229 1006 1272 1006 c 2
 1389 1006 l 2
 1413 1006 1426 998 1426 983 c 0
 1426 971 1420 957 1408 939 c 1
 927 67 l 1
 899 27 861 1 821 1 c 2
 723 1 l 2
EndSplineSet
EndChar

StartChar: w
Encoding: 87 119 384
Width: 2505
VWidth: 0
Flags: HW
LayerCount: 2
Fore
SplineSet
692 0 m 2
 653 0 619 27 596 67 c 1
 129 939 l 2
 121 954 117 968 117 978 c 0
 117 996 131 1006 159 1006 c 2
 273 1006 l 2
 316 1006 335 983 357 939 c 2
 739 177 l 2
 743 170 747 167 751 167 c 0
 756 167 760 171 763 177 c 2
 1123 939 l 2
 1145 986 1174 1006 1217 1006 c 2
 1299 1006 l 2
 1336 1006 1352 980 1375 939 c 1
 1775 177 l 2
 1778 171 1782 169 1786 169 c 0
 1792 169 1798 174 1799 177 c 2
 2140 939 l 2
 2161 986 2191 1006 2234 1006 c 2
 2351 1006 l 2
 2375 1006 2388 998 2388 983 c 0
 2388 972 2382 957 2370 939 c 1
 1943 67 l 2
 1922 23 1877 0 1837 0 c 2
 1729 0 l 2
 1690 0 1654 26 1633 67 c 2
 1264 790 l 2
 1261 796 1258 797 1254 797 c 0
 1249 797 1244 793 1243 790 c 2
 904 67 l 2
 883 23 838 0 798 0 c 2
 692 0 l 2
EndSplineSet
EndChar

StartChar: x
Encoding: 88 120 389
Width: 1698
VWidth: 0
Flags: HW
LayerCount: 2
Fore
SplineSet
155 0 m 2
 139 0 129 13 129 26 c 0
 129 33 132 41 139 46 c 0
 332 197 523 347 709 493 c 0
 711 495 714 496 714 500 c 0
 714 503 712 506 709 511 c 1
 468 707 243 890 161 958 c 0
 154 963 151 971 151 978 c 0
 151 992 162 1006 179 1006 c 2
 308 1006 l 2
 355 1006 382 985 419 956 c 0
 492 898 631 785 842 616 c 0
 844 614 847 612 852 612 c 0
 855 612 858 613 865 616 c 1
 1070 775 1228 902 1298 958 c 0
 1335 987 1357 1006 1404 1006 c 2
 1533 1006 l 2
 1549 1006 1559 994 1559 981 c 0
 1559 973 1555 965 1548 960 c 0
 1403 842 1203 680 998 513 c 0
 995 511 993 509 993 505 c 0
 993 503 994 498 998 492 c 1
 1158 363 1332 223 1553 48 c 0
 1560 42 1563 35 1563 28 c 0
 1563 14 1552 0 1535 0 c 2
 1413 0 l 2
 1366 0 1314 21 1278 50 c 0
 1217 99 1057 229 870 380 c 0
 866 383 863 386 855 386 c 0
 851 386 843 385 832 380 c 1
 645 230 486 104 411 47 c 0
 374 18 320 0 273 0 c 2
 155 0 l 2
EndSplineSet
EndChar

StartChar: y
Encoding: 89 121 390
Width: 1544
VWidth: 0
Flags: HW
LayerCount: 2
Fore
SplineSet
432 -437 m 0
 330 -437 237 -418 177 -388 c 0
 156 -378 150 -373 149 -344 c 0
 148 -332 150 -320 154 -308 c 1
 161 -277 l 1
 170 -254 196 -242 221 -242 c 0
 228 -242 236 -244 243 -246 c 0
 294 -263 394 -276 425 -276 c 2
 443 -276 l 1
 500 -275 596 -253 658 -128 c 1
 658 -128 676 -91 709 -30 c 1
 516 293 324 616 131 939 c 0
 122 954 119 967 119 977 c 0
 119 996 133 1006 161 1006 c 2
 275 1006 l 2
 318 1006 334 982 359 939 c 2
 789 192 l 2
 792 186 799 179 809 179 c 0
 817 179 822 185 830 200 c 0
 856 247 1215 932 1215 933 c 0
 1241 991 1269 1005 1315 1006 c 1
 1415 1006 l 2
 1444 1006 1466 983 1467 957 c 0
 1467 950 1467 943 1463 936 c 2
 826 -208 l 2
 765 -316 688 -437 432 -437 c 0
EndSplineSet
EndChar

StartChar: yen
Encoding: 99 165 394
Width: 1670
VWidth: 0
Flags: HW
LayerCount: 2
Fore
SplineSet
793 0 m 2
 750 0 726 24 726 67 c 2
 726 234 l 1
 487 234 l 2
 444 234 440 247 440 290 c 2
 440 321 l 2
 440 364 444 378 487 378 c 2
 726 378 l 1
 729 573 l 1
 423 573 l 2
 380 573 376 586 376 629 c 2
 376 660 l 2
 376 703 380 717 423 717 c 2
 728 717 l 1
 110 1371 l 1
 87 1391 77 1409 77 1421 c 0
 77 1432 88 1438 110 1438 c 2
 241 1438 l 2
 284 1438 331 1414 375 1371 c 1
 837 882 l 1
 1292 1371 l 2
 1332 1414 1377 1438 1419 1438 c 2
 1554 1438 l 2
 1577 1438 1588 1431 1588 1418 c 0
 1588 1407 1581 1389 1560 1371 c 1
 935 717 l 1
 1241 717 l 2
 1284 717 1288 703 1288 660 c 2
 1288 629 l 2
 1288 586 1284 573 1241 573 c 2
 939 573 l 1
 941 378 l 1
 1209 378 l 2
 1252 378 1256 364 1256 321 c 2
 1256 290 l 2
 1256 247 1252 234 1209 234 c 2
 941 234 l 1
 941 67 l 2
 941 24 917 0 874 0 c 2
 793 0 l 2
EndSplineSet
EndChar

StartChar: z
Encoding: 90 122 396
Width: 1457
VWidth: 0
Flags: HW
LayerCount: 2
Fore
SplineSet
210 0 m 2
 190 0 142 17 142 37 c 2
 142 118 l 2
 142 141 154 167 171 178 c 1
 1032 851 l 1
 183 851 l 2
 163 851 146 868 146 888 c 2
 146 969 l 2
 146 989 163 1006 183 1006 c 2
 1215 1006 l 2
 1235 1006 1282 989 1282 969 c 2
 1282 871 l 2
 1282 848 1270 823 1253 810 c 2
 438 155 l 1
 1284 155 l 2
 1304 155 1321 138 1321 118 c 2
 1321 37 l 2
 1321 17 1304 0 1284 0 c 2
 210 0 l 2
EndSplineSet
EndChar

StartChar: zero
Encoding: 16 48 400
Width: 1925
VWidth: 0
Flags: HW
LayerCount: 2
Fore
SplineSet
962 129 m 0
 1357 129 1574 278 1574 732 c 0
 1574 1113 1370 1304 962 1304 c 0
 557 1304 351 1115 351 732 c 0
 351 278 570 129 962 129 c 0
962 -41 m 0
 506 -41 136 155 136 732 c 0
 136 1263 506 1475 962 1475 c 0
 1422 1475 1789 1263 1789 732 c 0
 1789 155 1422 -41 962 -41 c 0
EndSplineSet
EndChar

StartChar: tbar
Encoding: 293 359 401
Width: 1171
VWidth: 0
Flags: HW
LayerCount: 2
Fore
SplineSet
707 -41 m 0
 425 -41 305 109 305 331 c 2
 305 517 l 1
 202 517 l 2
 131 517 126 543 126 575 c 2
 126 597 l 2
 126 634 131 662 202 662 c 2
 305 662 l 1
 305 823 l 2
 305 843 298 850 278 850 c 2
 148 850 l 2
 105 850 81 873 81 916 c 2
 81 939 l 2
 81 982 105 1006 148 1006 c 2
 278 1006 l 2
 298 1006 305 1013 305 1033 c 1
 324 1408 l 1
 333 1450 348 1475 391 1475 c 2
 456 1475 l 2
 499 1475 522 1451 522 1408 c 2
 522 1033 l 2
 522 1013 529 1006 549 1006 c 2
 932 1006 l 2
 975 1006 998 982 998 939 c 2
 998 916 l 2
 998 873 975 850 932 850 c 2
 549 850 l 2
 529 850 522 843 522 823 c 2
 522 662 l 1
 816 662 l 2
 887 662 892 630 892 587 c 2
 892 575 l 2
 892 543 887 517 816 517 c 2
 522 517 l 1
 522 301 l 2
 522 163 596 107 748 107 c 0
 816 107 890 124 951 144 c 0
 965 149 977 151 986 151 c 0
 1012 151 1018 132 1025 106 c 2
 1034 78 l 2
 1036 70 1037 63 1037 57 c 0
 1037 30 1017 18 984 5 c 0
 905 -26 816 -41 707 -41 c 0
EndSplineSet
EndChar

StartChar: endash
Encoding: 395 8211 402
Width: 1024
VWidth: 0
Flags: HW
LayerCount: 2
Fore
SplineSet
183 489 m 6
 844 489 l 6
 888 489 900 502 900 546 c 6
 900 593 l 6
 900 637 888 650 844 650 c 6
 183 650 l 6
 139 650 123 637 123 593 c 6
 123 546 l 6
 123 502 139 489 183 489 c 6
EndSplineSet
EndChar

StartChar: emdash
Encoding: 396 8212 403
Width: 2048
VWidth: 0
Flags: HW
LayerCount: 2
Fore
SplineSet
181 489 m 2
 1871 489 l 2
 1915 489 1927 502 1927 545 c 2
 1927 593 l 2
 1927 637 1915 650 1871 650 c 2
 181 650 l 2
 137 650 121 637 121 593 c 2
 121 546 l 2
 121 502 137 489 181 489 c 2
EndSplineSet
EndChar

StartChar: eng
Encoding: 265 331 404
Width: 1529
VWidth: 0
Flags: HW
LayerCount: 2
Fore
SplineSet
1168 67 m 2
 1168 609 l 2
 1168 836 1015 905 829 905 c 0
 632 905 371 742 371 609 c 2
 371 67 l 2
 371 24 348 0 305 0 c 2
 219 0 l 2
 176 0 152 24 152 67 c 2
 152 929 l 2
 152 972 165 1006 208 1006 c 2
 226 1006 l 2
 273 1006 295 992 305 942 c 2
 331 824 l 1
 336 816 338 811 346 811 c 0
 354 811 360 819 366 826 c 0
 496 987 680 1052 869 1052 c 0
 1177 1052 1386 888 1386 553 c 2
 1386 6 l 2
 1386 -257 1272 -379 968 -379 c 0
 967 -379 965 -379 964 -379 c 2
 964 -379 878 -379 880 -380 c 1
 837 -380 822 -356 822 -313 c 2
 822 -268 l 2
 822 -225 837 -207 880 -207 c 2
 1005 -207 l 2
 1167 -207 1168 -105 1168 67 c 2
EndSplineSet
EndChar

StartChar: lslash
Encoding: 256 322 405
Width: 922
VWidth: 0
Flags: HW
LayerCount: 2
Fore
SplineSet
404 0 m 2
 361 0 337 24 337 67 c 2
 337 690 l 1
 126 624 l 2
 121 623 116 622 112 622 c 0
 80 622 68 653 68 692 c 2
 68 709 l 2
 68 752 83 766 126 776 c 1
 337 842 l 1
 337 1370 l 2
 337 1413 361 1437 404 1437 c 2
 489 1437 l 2
 532 1437 555 1413 555 1370 c 2
 555 911 l 1
 797 987 l 2
 803 989 808 990 813 990 c 0
 844 990 855 957 855 919 c 2
 855 903 l 2
 855 859 838 848 797 835 c 2
 555 759 l 1
 555 67 l 2
 555 24 532 0 489 0 c 2
 404 0 l 2
EndSplineSet
EndChar

StartChar: quotesingle
Encoding: 7 39 406
Width: 501
VWidth: 0
Flags: HW
LayerCount: 2
Fore
SplineSet
253 774 m 2
 210 774 213 798 207 841 c 2
 141 1348 l 2
 140 1352 140 1357 140 1361 c 0
 140 1400 168 1436 207 1436 c 2
 294 1436 l 2
 334 1436 362 1397 362 1357 c 0
 362 1354 361 1350 361 1347 c 2
 302 841 l 2
 297 798 299 774 256 774 c 2
 253 774 l 2
EndSplineSet
EndChar

StartChar: dollar
Encoding: 4 36 407
Width: 2048
VWidth: 0
Flags: HW
LayerCount: 2
Fore
SplineSet
947 831 m 1
 947 1313 l 1
 470 1307 354 1201 354 1067 c 0
 354 924 412 851 947 831 c 1
1039 123 m 1
 1544 129 1626 235 1626 410 c 0
 1626 569 1560 652 1039 653 c 1
 1039 123 l 1
1005 -197 m 2
 981 -197 l 2
 962 -197 947 -183 947 -137 c 2
 947 -41 l 1
 650 -40 457 -7 187 98 c 1
 161 107 146 134 145 164 c 0
 145 172 155 213 155 213 c 1
 170 245 192 256 222 258 c 1
 305 253 459 137 947 122 c 1
 947 653 l 1
 428 663 146 727 146 1045 c 0
 146 1410 519 1475 947 1475 c 1
 947 1577 l 2
 947 1622 962 1638 981 1638 c 2
 1005 1638 l 2
 1024 1638 1039 1622 1039 1577 c 2
 1039 1474 l 1
 1316 1469 1489 1424 1676 1341 c 1
 1701 1331 1717 1305 1717 1276 c 0
 1717 1266 1716 1260 1712 1251 c 1
 1712 1252 1705 1191 1639 1191 c 1
 1548 1202 1388 1295 1039 1311 c 1
 1039 832 l 1
 1048 832 1056 832 1065 832 c 0
 1591 832 1829 711 1829 436 c 0
 1829 76 1576 -32 1039 -40 c 1
 1039 -137 l 2
 1039 -183 1024 -197 1005 -197 c 2
EndSplineSet
EndChar

StartChar: plusminus
Encoding: 111 177 409
Width: 1217
VWidth: 0
Flags: HW
LayerCount: 2
Fore
SplineSet
158 -36 m 2
 115 -36 91 -13 91 31 c 2
 91 78 l 2
 91 121 115 145 158 145 c 2
 1048 145 l 2
 1091 145 1115 121 1115 78 c 2
 1115 31 l 2
 1115 -11 1091 -36 1048 -36 c 2
 158 -36 l 2
570 224 m 2
 527 224 514 248 514 291 c 2
 514 565 l 2
 514 585 507 602 487 602 c 2
 186 602 l 2
 143 602 129 616 129 659 c 2
 129 718 l 2
 129 761 143 774 186 774 c 2
 487 774 l 2
 507 774 514 790 514 810 c 2
 514 1096 l 6
 514 1139 527 1163 570 1163 c 6
 646 1163 l 6
 689 1163 702 1139 702 1096 c 6
 702 810 l 2
 702 790 709 774 729 774 c 2
 1031 774 l 2
 1074 774 1087 761 1087 718 c 2
 1087 659 l 2
 1087 616 1074 602 1031 602 c 2
 729 602 l 2
 709 602 702 585 702 565 c 2
 702 291 l 2
 702 248 689 224 646 224 c 2
 570 224 l 2
EndSplineSet
EndChar

StartChar: onequarter
Encoding: 122 188 410
Width: 3032
VWidth: 0
Flags: HW
LayerCount: 2
Fore
SplineSet
399 434 m 2
 368 434 364 451 364 483 c 1
 364 483 364 572 364 690 c 0
 364 1281 l 1
 364 1281 369 1313 338 1313 c 1
 139 1290 l 1
 107 1290 98 1309 98 1340 c 1
 99 1340 100 1363 100 1363 c 1
 100 1395 118 1408 149 1408 c 1
 150 1408 l 0
 168 1408 516 1443 516 1443 c 1
 537 1443 541 1433 541 1417 c 0
 541 1410 540 1401 540 1391 c 1
 539 1391 538 480 538 480 c 2
 538 456 524 434 498 434 c 2
 399 434 l 2
2566 3 m 2
 2536 3 2520 20 2520 50 c 2
 2520 201 l 1
 1937 199 l 2
 1911 199 1888 212 1888 234 c 0
 1888 238 1888 241 1890 246 c 2
 2115 958 l 2
 2124 986 2131 1006 2161 1006 c 2
 2237 1006 l 2
 2263 1006 2286 992 2286 970 c 0
 2286 966 2285 963 2284 959 c 2
 2093 339 l 1
 2093 332 l 2
 2093 322 2101 315 2112 316 c 1
 2520 315 l 1
 2520 959 l 2
 2520 989 2537 1006 2567 1006 c 2
 2646 1006 l 2
 2676 1006 2693 989 2693 959 c 2
 2693 315 l 1
 2872 315 l 2
 2902 315 2918 299 2918 269 c 2
 2918 248 l 2
 2918 218 2902 201 2872 201 c 2
 2693 201 l 1
 2693 50 l 2
 2693 20 2676 3 2646 3 c 2
 2566 3 l 2
758 -205 m 2
 746 -205 741 -197 741 -187 c 0
 741 -182 742 -176 745 -171 c 2
 1641 1618 l 2
 1651 1638 1653 1648 1680 1648 c 1
 1680 1648 1694 1648 1714 1648 c 0
 1812 1648 l 2
 1824 1648 1829 1640 1829 1629 c 0
 1829 1624 1828 1618 1826 1613 c 0
 1825 1613 940 -170 940 -170 c 2
 922 -205 916 -205 890 -205 c 2
 758 -205 l 2
EndSplineSet
EndChar

StartChar: onehalf
Encoding: 123 189 411
Width: 3418
VWidth: 0
Flags: HW
LayerCount: 2
Fore
SplineSet
2075 0 m 2
 2044 0 2025 17 2025 65 c 0
 2025 77 2026 92 2029 109 c 0
 2158 733 3128 360 3128 718 c 0
 3128 863 2988 934 2653 934 c 0
 2390 934 2141 848 2138 842 c 0
 2136 838 2139 839 2130 839 c 0
 2107 839 2094 846 2091 862 c 1
 2068 912 2069 914 2069 916 c 0
 2070 942 2079 954 2097 963 c 1
 2181 991 2407 1054 2643 1054 c 0
 3033 1054 3279 968 3279 716 c 0
 3279 215 2333 583 2215 143 c 1
 2215 117 2233 116 2248 116 c 2
 3186 116 l 2
 3215 116 3218 104 3218 75 c 2
 3218 35 l 2
 3218 3 3209 0 3182 0 c 2
 2075 0 l 2
927 -205 m 2
 909 -205 906 -187 914 -171 c 2
 1809 1618 l 2
 1819 1638 1822 1648 1849 1648 c 1
 1849 1648 1863 1648 1883 1648 c 0
 1981 1648 l 2
 1993 1648 1998 1640 1998 1629 c 0
 1998 1624 1997 1618 1995 1613 c 0
 1994 1613 1109 -170 1109 -170 c 2
 1091 -205 1085 -205 1059 -205 c 2
 927 -205 l 2
439 434 m 2
 408 434 404 451 404 483 c 1
 404 483 404 572 404 690 c 0
 404 1281 l 1
 404 1281 409 1313 378 1313 c 1
 179 1290 l 1
 147 1290 138 1309 138 1340 c 1
 139 1340 140 1363 140 1363 c 1
 140 1395 158 1408 189 1408 c 1
 190 1408 l 0
 208 1408 556 1443 556 1443 c 1
 577 1443 581 1433 581 1417 c 0
 581 1410 580 1401 580 1391 c 1
 579 1391 578 480 578 480 c 2
 578 456 564 434 538 434 c 2
 439 434 l 2
EndSplineSet
EndChar

StartChar: threequarters
Encoding: 124 190 412
Width: 3635
VWidth: 0
Flags: HW
LayerCount: 2
Fore
SplineSet
1525 -172 m 1
 2429 1617 l 2
 2437 1633 2422 1647 2409 1647 c 2
 2310 1647 l 2
 2290 1647 2268 1633 2260 1615 c 2
 1358 -172 l 2
 1350 -188 1362 -205 1378 -205 c 2
 1473 -205 l 2
 1494 -205 1516 -193 1525 -172 c 1
3041 3 m 2
 3099 3 l 2
 3129 3 3146 20 3146 50 c 2
 3146 201 l 1
 3325 201 l 2
 3355 201 3371 218 3371 248 c 2
 3371 269 l 2
 3371 299 3355 316 3325 316 c 2
 3146 316 l 1
 3146 960 l 2
 3146 990 3129 1007 3099 1007 c 2
 3041 1007 l 2
 3011 1007 2994 990 2994 960 c 2
 2994 316 l 1
 2587 316 l 2
 2575 316 2567 323 2567 332 c 0
 2567 335 2567 337 2568 339 c 2
 2758 960 l 2
 2760 964 2760 967 2760 971 c 0
 2760 993 2737 1007 2711 1007 c 2
 2653 1007 l 2
 2623 1007 2615 988 2606 960 c 2
 2381 248 l 2
 2379 244 2379 240 2379 237 c 0
 2379 214 2402 201 2428 201 c 2
 2994 201 l 1
 2994 50 l 2
 2994 20 3011 3 3041 3 c 2
783 1356 m 0
 1041 1356 1160 1313 1160 1182 c 0
 1160 1094 1102 1007 835 1007 c 2
 667 1007 l 2
 644 1007 644 986 644 976 c 2
 644 918 l 2
 644 908 644 888 667 888 c 2
 835 888 l 2
 1100 888 1175 802 1175 712 c 0
 1175 705 1175 698 1174 691 c 0
 1165 625 1109 524 762 524 c 0
 525 524 220 588 192 593 c 0
 186 594 181 595 176 595 c 0
 157 595 147 586 145 564 c 2
 142 525 l 2
 141 521 141 518 141 515 c 0
 141 494 152 482 179 475 c 0
 258 452 616 403 755 403 c 0
 1185 403 1327 528 1327 705 c 0
 1327 831 1238 926 1090 944 c 1
 1232 959 1310 1049 1310 1175 c 0
 1310 1345 1208 1478 779 1478 c 0
 607 1478 258 1426 179 1402 c 1
 152 1395 141 1383 141 1362 c 0
 141 1359 141 1356 142 1353 c 2
 149 1315 l 1
 152 1293 167 1284 185 1284 c 0
 190 1284 196 1284 202 1286 c 0
 230 1291 519 1356 783 1356 c 0
EndSplineSet
EndChar

StartChar: slash
Encoding: 15 47 413
Width: 1231
VWidth: 0
Flags: HW
LayerCount: 2
Fore
SplineSet
95 -205 m 2
 83 -205 78 -197 78 -187 c 0
 78 -182 79 -176 82 -171 c 2
 978 1618 l 2
 988 1638 990 1648 1017 1648 c 2
 1149 1648 l 2
 1161 1648 1166 1640 1166 1629 c 0
 1166 1624 1165 1618 1163 1613 c 0
 1162 1613 277 -170 277 -170 c 2
 259 -205 253 -205 227 -205 c 2
 95 -205 l 2
EndSplineSet
EndChar

StartChar: uni00B9
Encoding: 119 185 414
Width: 714
VWidth: 0
Flags: HW
LayerCount: 2
Fore
SplineSet
429 434 m 2
 398 434 394 451 394 483 c 1
 394 483 394 572 394 690 c 0
 394 1281 l 1
 394 1281 399 1313 368 1313 c 1
 169 1290 l 1
 137 1290 128 1309 128 1340 c 1
 129 1340 130 1363 130 1363 c 1
 130 1395 148 1408 179 1408 c 1
 180 1408 l 0
 198 1408 546 1443 546 1443 c 1
 567 1443 571 1433 571 1417 c 0
 571 1410 570 1401 570 1391 c 1
 569 1391 568 480 568 480 c 2
 568 456 554 434 528 434 c 2
 429 434 l 2
EndSplineSet
EndChar

StartChar: quotedblbase
Encoding: 402 8222 415
Width: 826
VWidth: 0
Flags: HW
LayerCount: 2
Fore
SplineSet
245 -308 m 6
 202 -308 205 -284 199 -241 c 6
 133 248 l 6
 132 252 132 257 132 261 c 0
 132 300 160 336 199 336 c 6
 286 336 l 6
 326 336 354 297 354 257 c 0
 354 254 353 250 353 247 c 6
 294 -241 l 6
 289 -284 291 -308 248 -308 c 6
 245 -308 l 6
581 -308 m 6
 538 -308 541 -284 535 -241 c 6
 469 248 l 6
 469 252 468 255 468 259 c 0
 468 298 497 336 536 336 c 6
 623 336 l 6
 663 336 690 298 690 258 c 0
 690 255 689 250 689 247 c 6
 630 -241 l 6
 625 -284 627 -308 584 -308 c 6
 581 -308 l 6
EndSplineSet
EndChar

StartChar: quotesinglbase
Encoding: 399 8218 416
Width: 501
VWidth: 0
Flags: HW
LayerCount: 2
Fore
SplineSet
253 -308 m 2
 210 -308 213 -284 207 -241 c 2
 141 248 l 2
 140 252 140 257 140 261 c 0
 140 300 168 336 207 336 c 2
 294 336 l 2
 334 336 362 297 362 257 c 0
 362 254 361 250 361 247 c 2
 302 -241 l 2
 297 -284 299 -308 256 -308 c 2
 253 -308 l 2
EndSplineSet
EndChar

StartChar: bullet
Encoding: 405 8226 417
Width: 1084
VWidth: 0
Flags: HW
LayerCount: 2
Fore
SplineSet
541 108 m 0
 831 108 939 324 939 511 c 0
 939 706 831 916 541 916 c 0
 251 916 143 706 143 511 c 0
 143 324 251 108 541 108 c 0
EndSplineSet
EndChar

StartChar: uni00B2
Encoding: 112 178 418
Width: 1461
VWidth: 0
Flags: HW
LayerCount: 2
Fore
SplineSet
172 421.002 m 2
 141 421.002 122 438.002 122 486.002 c 0
 122 498.002 123 512.002 126 529.002 c 0
 250 1153 1185 781.002 1185 1139 c 0
 1185 1284 1057 1355 750 1355 c 0
 487 1355 238 1269 235 1263 c 0
 233 1259 236 1259 227 1259 c 0
 204 1259 191 1267 188 1283 c 1
 165 1333 166 1335 166 1337 c 0
 167 1363 176 1374 194 1383 c 1
 278 1411 504 1475 740 1475 c 0
 1105 1475 1336 1389 1336 1137 c 0
 1336 636.002 426 1003 312 563.002 c 1
 312 537.002 330 537.002 345 537.002 c 2
 1283 537.002 l 2
 1312 537.002 1315 524.002 1315 495.002 c 2
 1315 455.002 l 2
 1315 423.002 1306 421.002 1279 421.002 c 2
 172 421.002 l 2
EndSplineSet
EndChar

StartChar: uni00B3
Encoding: 113 179 420
Width: 1472
VWidth: 0
Flags: HW
LayerCount: 2
Fore
SplineSet
783 1355 m 0
 1041 1355 1160 1312 1160 1181 c 0
 1160 1093 1102 1006 835 1006 c 2
 667 1006 l 2
 644 1006 644 985 644 975 c 2
 644 917 l 2
 644 907 644 887 667 887 c 2
 835 887 l 2
 1100 887 1175 801 1175 711 c 0
 1175 704 1175 697 1174 690 c 0
 1165 624 1109 523 762 523 c 0
 525 523 220 587 192 592 c 0
 186 593 181 594 176 594 c 0
 157 594 147 585 145 563 c 2
 142 524 l 2
 141 520 141 517 141 514 c 0
 141 493 152 481 179 474 c 0
 258 451 616 402 755 402 c 0
 1185 402 1327 527 1327 704 c 0
 1327 830 1238 925 1090 943 c 1
 1232 958 1310 1048 1310 1174 c 0
 1310 1344 1208 1477 779 1477 c 0
 607 1477 258 1425 179 1401 c 1
 152 1394 141 1382 141 1361 c 0
 141 1358 141 1355 142 1352 c 2
 149 1314 l 1
 152 1292 167 1283 185 1283 c 0
 190 1283 196 1283 202 1285 c 0
 230 1290 519 1355 783 1355 c 0
EndSplineSet
EndChar

StartChar: uni00B5
Encoding: 115 181 421
Width: 1537
VWidth: 0
Flags: HW
LayerCount: 2
Fore
SplineSet
220 -299 m 2
 177 -299 152 -275 152 -232 c 2
 152 939 l 2
 152 982 176 1006 219 1006 c 2
 304 1006 l 2
 347 1006 371 982 371 939 c 2
 371 397 l 2
 371 170 520 109 707 109 c 0
 903 109 1168 264 1168 397 c 2
 1168 939 l 2
 1168 982 1190 1006 1233 1006 c 2
 1320 1006 l 2
 1363 1006 1387 982 1387 939 c 2
 1387 77 l 2
 1387 34 1373 0 1330 0 c 2
 1313 0 l 2
 1266 0 1243 15 1232 64 c 2
 1207 183 l 1
 1202 191 1201 196 1193 196 c 0
 1185 196 1178 188 1172 181 c 0
 1042 18 856 -47 666 -47 c 0
 553 -47 425 -19 372 50 c 1
 372 -232 l 2
 372 -275 356 -299 313 -299 c 2
 220 -299 l 2
EndSplineSet
EndChar

StartChar: lozenge
Encoding: 418 9674 422
Width: 1352
VWidth: 0
Flags: HW
LayerCount: 2
Fore
SplineSet
1043.22 648.736 m 2
 709 60 l 2
 689.253 25.2139 668 0 627 0 c 2
 571 0 l 2
 530 0 508.016 24.1201 489 60 c 2
 162 677 l 2
 159.294 682.024 158.178 687.155 158.178 692.266 c 0
 158.178 702.425 162.588 712.502 167.687 721.499 c 2
 504 1305 l 2
 523.974 1339.65 545 1365 586 1365 c 2
 642 1365 l 2
 683 1365 704.997 1340.89 724 1305 c 2
 1033.5 720.5 l 2
 1045 699.107 1053.58 690.08 1053.58 677.731 c 0
 1053.58 670.361 1050.53 661.807 1043.22 648.736 c 2
868.5 717.5 m 2
 630 1179 l 2
 626.689 1185.41 621 1188 616 1188 c 0
 612 1188 605.132 1184.59 602 1179 c 2
 342 715 l 1
 334.59 704.996 330.915 698.46 330.915 690.709 c 0
 330.915 683.655 333.959 675.596 340 663 c 2
 584 186 l 2
 587.284 179.58 593 177 598 177 c 0
 602 177 607.941 180.375 611 186 c 2
 866 655 l 2
 873.883 671.034 879.046 677.708 879.046 686.71 c 0
 879.046 693.721 875.915 702.144 868.5 717.5 c 2
EndSplineSet
EndChar

StartChar: integral
Encoding: 414 8747 423
Width: 1107
VWidth: 0
Flags: HW
LayerCount: 2
Fore
SplineSet
660.987 266.5 m 2
 660.979 -67.3916 528.433 -160 318 -160 c 0
 159 -160 132 -127 116 -124 c 0
 88 -117 66 -102 66 -74 c 2
 66 -22 l 2
 66 15 74 22 108 22 c 0
 113 22 228.209 -17.2461 294 -12 c 0
 444.5 0 443 114 443 254 c 2
 444 1041 l 2
 443 1381 576 1475 788 1475 c 0
 947 1475 973 1441 989 1438 c 0
 1017 1431 1039 1416 1039 1388 c 2
 1039 1337 l 2
 1039 1300 1032 1293 998 1293 c 0
 993 1293 907 1327 841 1327 c 0
 674.5 1327 661 1200 661 1060 c 2
 660.987 266.5 l 2
EndSplineSet
EndChar
